<svg width="32" height="32" viewBox="0 0 32 32" fill="none" xmlns="http://www.w3.org/2000/svg">
<g clip-path="url(#clip0_88_5570)">
<path d="M28.6821 19.016C28.5314 19.1707 27.9625 19.832 27.4325 20.376C24.3255 23.7973 16.2203 29.3973 11.9781 31.1067C11.3338 31.3813 9.70499 31.9627 8.83471 32C8.00081 32 7.20588 31.808 6.44731 31.4187C5.50171 30.8747 4.74314 30.0187 4.32749 29.008C4.05991 28.3067 3.64426 26.208 3.64426 26.1707C3.22861 23.8747 3 20.144 3 16.0213C3 12.0933 3.22861 8.51467 3.56892 6.184C3.60789 6.14667 4.02354 3.53867 4.47816 2.64533C5.31206 1.01333 6.9409 -1.72262e-07 8.68404 -2.48457e-07L8.83471 -2.55043e-07C9.96996 0.0399997 12.3574 1.05333 12.3574 1.09067C16.371 2.80267 24.2892 8.128 27.4715 11.6667C27.4715 11.6667 28.3678 12.576 28.7574 13.144C29.3653 13.96 29.6667 14.9707 29.6667 15.9813C29.6667 17.1093 29.3264 18.16 28.6821 19.016Z" fill="white"/>
</g>
<defs>
<clipPath id="clip0_88_5570">
<rect width="32" height="32" fill="white"/>
</clipPath>
</defs>
</svg>
