<svg width="64" height="64" viewBox="0 0 64 64" fill="none" xmlns="http://www.w3.org/2000/svg">
<path d="M43.5728 5.33118C52.6128 5.33118 58.6661 11.6778 58.6661 21.1178V42.9072C58.6661 52.3205 52.6128 58.6645 43.5728 58.6645H20.4528C11.4128 58.6645 5.33276 52.3205 5.33276 42.9072V21.1178C5.33276 11.6778 11.4128 5.33118 20.4528 5.33118H43.5728ZM40.0261 23.9205C39.1194 23.0112 37.6528 23.0112 36.7194 23.9205L31.9994 28.6645L27.2528 23.9205C26.3194 23.0112 24.8528 23.0112 23.9461 23.9205C23.0394 24.8272 23.0394 26.3205 23.9461 27.2245L28.6928 31.9738L23.9461 36.6938C23.0394 37.6272 23.0394 39.0938 23.9461 39.9978C24.3994 40.4512 25.0128 40.6938 25.5994 40.6938C26.2128 40.6938 26.7994 40.4512 27.2528 39.9978L31.9994 35.2805L36.7461 39.9978C37.1994 40.4805 37.7861 40.6938 38.3728 40.6938C38.9861 40.6938 39.5728 40.4512 40.0261 39.9978C40.9328 39.0938 40.9328 37.6272 40.0261 36.7205L35.2794 31.9738L40.0261 27.2245C40.9328 26.3205 40.9328 24.8272 40.0261 23.9205Z" fill="white"/>
</svg>
