<svg width="64" height="64" viewBox="0 0 64 64" fill="none" xmlns="http://www.w3.org/2000/svg">
<path d="M18.1312 18.4784C16.6297 16.8597 14.0984 16.7659 12.4781 18.2691L1.2781 28.6691C0.4625 29.4253 0 30.4878 0 31.6003C0 32.7128 0.4625 33.7753 1.2781 34.5315L12.4781 44.9315C13.2484 45.6472 14.225 46.0003 15.1984 46.0003C16.2719 46.0003 17.3438 45.5722 18.1312 44.7222C19.6344 43.1034 19.5406 40.5722 17.9219 39.069L9.8781 31.6003L17.9219 24.1315C19.5406 22.6284 19.6344 20.0972 18.1312 18.4784ZM62.7219 28.6691L51.5219 18.2691C49.9031 16.7659 47.3703 16.8597 45.8687 18.4784C44.3656 20.0972 44.4594 22.6284 46.0781 24.1316L54.1219 31.6003L46.0781 39.0691C44.4594 40.5722 44.3656 43.1034 45.8687 44.7222C46.6562 45.5722 47.7281 46.0003 48.8016 46.0003C49.775 46.0003 50.7516 45.6472 51.5219 44.9315L62.7219 34.5315C63.5375 33.7753 64 32.7128 64 31.6003C64 30.4878 63.5375 29.4253 62.7219 28.6691ZM38.6031 6.12844C36.475 5.57534 34.2828 6.85974 33.7281 8.99724L22.5281 52.1972C21.9734 54.3347 23.2578 56.5191 25.3969 57.0722C25.7328 57.1597 26.0703 57.2003 26.4031 57.2003C28.1813 57.2003 29.8047 56.0065 30.2719 54.2034L41.4719 11.0034C42.0266 8.86594 40.7422 6.68154 38.6031 6.12844Z" fill="#181F24"/>
</svg>
