<svg width="242" height="190" viewBox="0 0 242 190" fill="none" xmlns="http://www.w3.org/2000/svg">
<path d="M69.0254 46.6556C63.3906 40.6895 53.8912 40.3438 47.8106 45.8842L5.77957 84.2158C2.71881 87.003 0.983154 90.9191 0.983154 95.0194C0.983154 99.1198 2.71881 103.036 5.77957 105.823L47.8106 144.155C50.7013 146.793 54.3663 148.094 58.0192 148.094C62.0478 148.094 66.0704 146.516 69.0254 143.383C74.6665 137.417 74.3145 128.087 68.2399 122.547L38.0534 95.0194L68.2399 67.4914C74.3145 61.9514 74.6665 52.6221 69.0254 46.6556ZM236.364 84.2158L194.333 45.8842C188.258 40.3438 178.753 40.6895 173.118 46.6556C167.477 52.6221 167.829 61.9514 173.904 67.4918L204.09 95.0194L173.904 122.547C167.829 128.087 167.477 137.417 173.118 143.383C176.073 146.516 180.096 148.094 184.124 148.094C187.777 148.094 191.442 146.793 194.333 144.155L236.364 105.823C239.425 103.036 241.16 99.1198 241.16 95.0194C241.16 90.9191 239.425 87.003 236.364 84.2158ZM145.852 1.13686C137.865 -0.901723 129.639 3.83223 127.557 11.7105L85.5259 170.934C83.4443 178.812 88.2643 186.863 96.2919 188.902C97.5524 189.225 98.819 189.374 100.068 189.374C106.741 189.374 112.833 184.974 114.587 178.328L156.618 19.1048C158.699 11.2265 153.879 3.17543 145.852 1.13686Z" fill="#1D2429"/>
</svg>
