<svg width="64" height="64" viewBox="0 0 64 64" fill="none" xmlns="http://www.w3.org/2000/svg">
<path d="M47.8048 3C52.096 3 56.224 4.696 59.2608 7.7392C62.3008 10.776 64 14.872 64 19.16V44.44C64 53.368 56.736 60.6 47.8048 60.6H16.192C7.2608 60.6 0 53.368 0 44.44V19.16C0 10.232 7.2288 3 16.192 3H47.8048ZM51.424 19.64C50.752 19.6048 50.112 19.832 49.6288 20.28L35.2 31.8C33.344 33.3392 30.6848 33.3392 28.8 31.8L14.4 20.28C13.4048 19.544 12.0288 19.64 11.2 20.504C10.336 21.368 10.24 22.744 10.9728 23.704L11.392 24.12L25.952 35.48C27.744 36.888 29.9168 37.656 32.192 37.656C34.4608 37.656 36.672 36.888 38.4608 35.48L52.896 23.928L53.152 23.672C53.9168 22.744 53.9168 21.4 53.1168 20.472C52.672 19.9952 52.0608 19.704 51.424 19.64Z" fill="#181F24"/>
</svg>
