<svg width="64" height="64" viewBox="0 0 64 64" fill="none" xmlns="http://www.w3.org/2000/svg">
<g clip-path="url(#clip0_88_5557)">
<path d="M62.241 9.27775L54.7221 1.75887C53.5494 0.586125 52.0121 0 50.4751 0C48.9369 0 47.3989 0.587125 46.2259 1.76137L35.9873 12.0112L17.0749 17.3522C14.5286 18.0709 12.4978 20.008 11.654 22.523L0.38151 54.2125C-0.50874 56.8845 0.18676 59.8301 2.17838 61.8216C3.59576 63.239 5.49651 64 7.43776 64C8.22438 64 9.01726 63.8752 9.78751 63.6184L41.4766 52.3459C43.9919 51.5022 45.929 49.4714 46.6478 46.9249L51.9886 28.0127L62.2385 17.774C64.5863 15.429 64.5873 11.6242 62.241 9.27775ZM40.8736 45.2954C40.6933 45.935 40.2053 46.4441 39.466 46.6932L9.45963 57.3684L24.1914 42.6365C24.7545 42.8562 25.3573 43.0012 25.9984 43.0012C28.7596 43.0012 30.998 40.7629 30.998 38.0016C30.998 35.2404 28.7596 33.0019 25.9984 33.0019C23.2371 33.0019 20.9986 35.2402 20.9986 38.0016C20.9986 38.6426 21.1436 39.2454 21.3634 39.8086L6.63338 54.5386L17.3421 24.4311C17.5558 23.7947 18.065 23.3066 18.7054 23.126L37.5553 17.8026L46.1973 26.4446L40.8736 45.2954Z" fill="#181F24"/>
</g>
<defs>
<clipPath id="clip0_88_5557">
<rect width="64" height="64" fill="white"/>
</clipPath>
</defs>
</svg>
