<svg width="64" height="64" viewBox="0 0 64 64" fill="none" xmlns="http://www.w3.org/2000/svg">
<g clip-path="url(#clip0_88_5554)">
<path d="M45.856 0C56.704 0 64 7.616 64 18.912V45.056C64 56.384 56.704 64 45.856 64H18.112C7.2672 64 0 56.384 0 45.056V18.912C0 7.616 7.2672 0 18.112 0H45.856ZM32 16.544C30.656 16.544 29.6 17.6 29.6 18.944V39.264L21.696 31.328C21.248 30.88 20.608 30.624 20 30.624C19.3952 30.624 18.784 30.88 18.304 31.328C17.376 32.256 17.376 33.792 18.304 34.72L30.304 46.784C31.2 47.68 32.8 47.68 33.696 46.784L45.696 34.72C46.624 33.792 46.624 32.256 45.696 31.328C44.736 30.4 43.232 30.4 42.272 31.328L34.4 39.264V18.944C34.4 17.6 33.312 16.544 32 16.544Z" fill="#181F24"/>
</g>
<defs>
<clipPath id="clip0_88_5554">
<rect width="64" height="64" fill="white"/>
</clipPath>
</defs>
</svg>
