<svg width="64" height="64" viewBox="0 0 64 64" fill="none" xmlns="http://www.w3.org/2000/svg">
<g clip-path="url(#clip0_88_5566)">
<path d="M1.64103 13.1282C1.2058 13.1282 0.788398 13.3011 0.480646 13.6088C0.172894 13.9166 0 14.334 0 14.7692C0 15.2044 0.172894 15.6218 0.480646 15.9296C0.788398 16.2373 1.2058 16.4102 1.64103 16.4102C2.07625 16.4102 2.49365 16.2373 2.80141 15.9296C3.10916 15.6218 3.28205 15.2044 3.28205 14.7692C3.28205 14.334 3.10916 13.9166 2.80141 13.6088C2.49365 13.3011 2.07625 13.1282 1.64103 13.1282Z" fill="#EE3E54"/>
<path d="M54.154 0.820679C53.9364 0.820679 53.7277 0.907126 53.5738 1.061C53.4199 1.21488 53.3335 1.42358 53.3335 1.64119C53.3335 1.85881 53.4199 2.06751 53.5738 2.22138C53.7277 2.37526 53.9364 2.4617 54.154 2.4617C54.3716 2.4617 54.5803 2.37526 54.7342 2.22138C54.8881 2.06751 54.9745 1.85881 54.9745 1.64119C54.9745 1.42358 54.8881 1.21488 54.7342 1.061C54.5803 0.907126 54.3716 0.820679 54.154 0.820679Z" fill="#F1BC19"/>
<path d="M31.9998 1.64099C23.9481 1.64099 16.2262 4.83952 10.5328 10.5329C4.8394 16.2263 1.64087 23.9483 1.64087 32C1.64087 40.0517 4.8394 47.7736 10.5328 53.467C16.2262 59.1604 23.9481 62.3589 31.9998 62.3589C40.0515 62.3589 47.7735 59.1604 53.4669 53.467C59.1603 47.7736 62.3588 40.0517 62.3588 32C62.3588 23.9483 59.1603 16.2263 53.4669 10.5329C47.7735 4.83952 40.0515 1.64099 31.9998 1.64099V1.64099Z" fill="#FCE0A2"/>
<path d="M59.077 0C58.2065 0 57.3717 0.345786 56.7562 0.96129C56.1407 1.57679 55.7949 2.4116 55.7949 3.28205C55.7949 4.15251 56.1407 4.98731 56.7562 5.60281C57.3717 6.21832 58.2065 6.5641 59.077 6.5641C59.9474 6.5641 60.7822 6.21832 61.3977 5.60281C62.0132 4.98731 62.359 4.15251 62.359 3.28205C62.359 2.4116 62.0132 1.57679 61.3977 0.96129C60.7822 0.345786 59.9474 0 59.077 0V0Z" fill="#F1BC19"/>
<path d="M62.359 9.02588C61.9238 9.02588 61.5064 9.19877 61.1987 9.50652C60.8909 9.81428 60.718 10.2317 60.718 10.6669C60.718 11.1021 60.8909 11.5195 61.1987 11.8273C61.5064 12.135 61.9238 12.3079 62.359 12.3079C62.7943 12.3079 63.2117 12.135 63.5194 11.8273C63.8272 11.5195 64.0001 11.1021 64.0001 10.6669C64.0001 10.2317 63.8272 9.81428 63.5194 9.50652C63.2117 9.19877 62.7943 9.02588 62.359 9.02588Z" fill="#EE3E54"/>
<path d="M57.4359 51.6923C57.0007 51.6923 56.5833 51.8652 56.2755 52.173C55.9678 52.4807 55.7949 52.8981 55.7949 53.3334C55.7949 53.7686 55.9678 54.186 56.2755 54.4937C56.5833 54.8015 57.0007 54.9744 57.4359 54.9744C57.8711 54.9744 58.2885 54.8015 58.5963 54.4937C58.904 54.186 59.0769 53.7686 59.0769 53.3334C59.0769 52.8981 58.904 52.4807 58.5963 52.173C58.2885 51.8652 57.8711 51.6923 57.4359 51.6923ZM3.28205 39.3846C2.4116 39.3846 1.57679 39.7304 0.96129 40.3459C0.345786 40.9614 0 41.7962 0 42.6667C0 43.5371 0.345786 44.372 0.96129 44.9875C1.57679 45.603 2.4116 45.9487 3.28205 45.9487C4.15251 45.9487 4.98731 45.603 5.60281 44.9875C6.21832 44.372 6.5641 43.5371 6.5641 42.6667C6.5641 41.7962 6.21832 40.9614 5.60281 40.3459C4.98731 39.7304 4.15251 39.3846 3.28205 39.3846Z" fill="#FBCD59"/>
<path d="M11.4872 60.7178C11.052 60.7178 10.6346 60.8907 10.3268 61.1984C10.0191 61.5062 9.84619 61.9236 9.84619 62.3588C9.84619 62.794 10.0191 63.2114 10.3268 63.5192C10.6346 63.8269 11.052 63.9998 11.4872 63.9998C11.9224 63.9998 12.3398 63.8269 12.6476 63.5192C12.9553 63.2114 13.1282 62.794 13.1282 62.3588C13.1282 61.9236 12.9553 61.5062 12.6476 61.1984C12.3398 60.8907 11.9224 60.7178 11.4872 60.7178Z" fill="#EE3E54"/>
<path d="M6.15382 32.8203C5.60979 32.8203 5.08804 33.0364 4.70335 33.4211C4.31866 33.8058 4.10254 34.3276 4.10254 34.8716C4.10254 35.4156 4.31866 35.9374 4.70335 36.3221C5.08804 36.7068 5.60979 36.9229 6.15382 36.9229C6.69785 36.9229 7.21961 36.7068 7.6043 36.3221C7.98899 35.9374 8.2051 35.4156 8.2051 34.8716C8.2051 34.3276 7.98899 33.8058 7.6043 33.4211C7.21961 33.0364 6.69785 32.8203 6.15382 32.8203V32.8203Z" fill="white"/>
<path d="M8.20528 45.1282C7.98766 45.1282 7.77896 45.2146 7.62509 45.3685C7.47121 45.5224 7.38477 45.7311 7.38477 45.9487C7.38477 46.1663 7.47121 46.375 7.62509 46.5289C7.77896 46.6828 7.98766 46.7692 8.20528 46.7692C8.42289 46.7692 8.63159 46.6828 8.78547 46.5289C8.93935 46.375 9.02579 46.1663 9.02579 45.9487C9.02579 45.7311 8.93935 45.5224 8.78547 45.3685C8.63159 45.2146 8.42289 45.1282 8.20528 45.1282Z" fill="#F1BC19"/>
<path d="M56.6154 18.0513C56.3978 18.0513 56.1891 18.1377 56.0352 18.2916C55.8814 18.4455 55.7949 18.6542 55.7949 18.8718C55.7949 19.0894 55.8814 19.2981 56.0352 19.452C56.1891 19.6058 56.3978 19.6923 56.6154 19.6923C56.833 19.6923 57.0417 19.6058 57.1956 19.452C57.3495 19.2981 57.4359 19.0894 57.4359 18.8718C57.4359 18.6542 57.3495 18.4455 57.1956 18.2916C57.0417 18.1377 56.833 18.0513 56.6154 18.0513Z" fill="white"/>
<path d="M32 12C29.387 12 26.7996 12.5147 24.3856 13.5146C21.9715 14.5145 19.778 15.9802 17.9304 17.8278C16.0827 19.6755 14.6171 21.8689 13.6171 24.283C12.6172 26.6971 12.1025 29.2845 12.1025 31.8974C12.1025 34.5104 12.6172 37.0978 13.6171 39.5119C14.6171 41.9259 16.0827 44.1194 17.9304 45.967C19.778 47.8147 21.9715 49.2803 24.3856 50.2803C26.7996 51.2802 29.387 51.7949 32 51.7949C34.6129 51.7949 37.2003 51.2802 39.6144 50.2803C42.0285 49.2803 44.2219 47.8147 46.0696 45.967C47.9172 44.1194 49.3829 41.9259 50.3828 39.5119C51.3827 37.0978 51.8974 34.5104 51.8974 31.8974C51.8974 29.2845 51.3827 26.6971 50.3828 24.283C49.3829 21.8689 47.9172 19.6755 46.0696 17.8278C44.2219 15.9802 42.0285 14.5145 39.6144 13.5146C37.2003 12.5147 34.6129 12 32 12V12Z" fill="#78A2D2"/>
<path d="M46.9037 39.75C46.8438 39.75 46.7822 39.7361 46.724 39.7082C46.5205 39.6089 46.436 39.3635 46.5353 39.1601C46.6436 38.9377 46.7453 38.7145 46.8429 38.4889C47.2204 37.6126 47.5207 36.6952 47.7348 35.7664C47.7857 35.5449 48.0081 35.4079 48.2272 35.4587C48.4479 35.5104 48.5857 35.7303 48.5348 35.951C48.3092 36.9283 47.9933 37.8924 47.5962 38.8146C47.4936 39.0517 47.3861 39.2864 47.2721 39.5194C47.2015 39.6655 47.0555 39.75 46.9037 39.75Z" fill="#472B29"/>
<path d="M48.6267 33.9166C48.6144 33.9166 48.6021 33.9158 48.5898 33.915C48.3642 33.8953 48.1976 33.6951 48.2181 33.4694C48.2501 33.1174 48.2698 32.7662 48.2788 32.4142C48.3338 30.2267 47.9589 28.0877 47.1646 26.0536C47.0817 25.8427 47.1867 25.6048 47.3976 25.5227C47.6101 25.4374 47.8464 25.5433 47.9293 25.7558C48.7638 27.8907 49.1576 30.1381 49.0994 32.4347C49.0903 32.8048 49.069 33.174 49.0354 33.5441C49.0157 33.7566 48.8368 33.9166 48.6267 33.9166Z" fill="#472B29"/>
<path d="M19.7802 20.9493C19.6793 20.9493 19.5792 20.9124 19.5004 20.8386C19.3347 20.6843 19.3265 20.4242 19.4807 20.2593C22.2697 17.271 26.044 15.3854 30.1064 14.9465C30.3337 14.9276 30.5339 15.086 30.5585 15.31C30.5831 15.5348 30.4198 15.7374 30.195 15.7621C26.3279 16.1797 22.7357 17.975 20.0805 20.8181C20.0001 20.9059 19.8902 20.9493 19.7802 20.9493Z" fill="#472B29"/>
<path d="M20.6259 44.541C20.525 44.541 20.4249 44.5041 20.3461 44.4302C14.5172 38.9886 13.1904 30.3683 17.1182 23.4678C17.2306 23.2692 17.4809 23.2011 17.6778 23.3135C17.8747 23.4259 17.9437 23.6762 17.8312 23.8731C14.0922 30.4421 15.3566 38.6489 20.9065 43.8304C21.0723 43.9847 21.0805 44.2448 20.9262 44.4097C20.845 44.4967 20.735 44.541 20.6259 44.541Z" fill="#472B29"/>
<path d="M39.2935 47.4C39.1409 47.4 38.994 47.3147 38.9235 47.1678C38.825 46.9643 38.9103 46.719 39.1147 46.6205C40.9214 45.7491 42.5378 44.5569 43.9196 43.0792C44.4767 42.481 44.992 41.8394 45.4507 41.1715C45.5787 40.9852 45.8355 40.9377 46.0209 41.0657C46.208 41.1937 46.2556 41.4488 46.1268 41.6359C45.6451 42.3374 45.1044 43.0119 44.5194 43.638C43.0679 45.192 41.3702 46.4441 39.4716 47.359C39.4141 47.3869 39.3534 47.4 39.2935 47.4Z" fill="#472B29"/>
<path d="M29.0936 51.2823V37.3336H24.1533V32.4286H29.0936V27.3283C28.9812 22.7523 32.5061 18.301 40.6661 20.7691L40.6489 25.094L37.7706 25.076C35.556 25.076 34.7937 25.7841 34.7937 27.3283V32.4286H40.6661L39.6339 37.3336H34.7937V51.2823" fill="white"/>
<path d="M35.2041 51.2822H34.3836V36.9232H39.3009L40.1608 32.8387H34.3836V27.3281C34.3836 25.4869 35.4281 24.6656 37.7707 24.6656L40.2404 24.6812L40.2552 21.0758C36.7483 20.0748 33.8724 20.3267 31.9237 21.811C30.3302 23.0245 29.4474 25.0323 29.504 27.3183V32.8395H24.5637V36.9232H29.504V51.2822H28.6835V37.7437H23.7432V32.0182H28.6835V27.3281C28.6211 24.7854 29.6205 22.5322 31.4264 21.1571C32.9756 19.9772 35.8556 18.8859 40.7852 20.3759L41.0781 20.4637L41.0584 25.5058L37.769 25.4861C35.6242 25.4861 35.2049 26.1614 35.2049 27.3281V32.0182H41.1725L39.9672 37.7437H35.2041V51.2822Z" fill="#472B29"/>
<path d="M31.9999 52.3692C20.7121 52.3692 11.5281 43.1861 11.5281 31.8975C11.5281 20.6088 20.7121 11.4257 31.9999 11.4257C43.2877 11.4257 52.4717 20.6088 52.4717 31.8975C52.4717 43.1861 43.2877 52.3692 31.9999 52.3692ZM31.9999 12.5744C21.3455 12.5744 12.6768 21.2423 12.6768 31.8975C12.6768 42.5526 21.3455 51.2205 31.9999 51.2205C42.6542 51.2205 51.323 42.5526 51.323 31.8975C51.323 21.2423 42.6542 12.5744 31.9999 12.5744Z" fill="#472B29"/>
</g>
<defs>
<clipPath id="clip0_88_5566">
<rect width="64" height="64" fill="white"/>
</clipPath>
</defs>
</svg>
