<svg width="64" height="64" viewBox="0 0 64 64" fill="none" xmlns="http://www.w3.org/2000/svg">
<g clip-path="url(#clip0_88_5561)">
<path d="M54.154 0.820435C53.9364 0.820435 53.7277 0.906881 53.5738 1.06076C53.4199 1.21463 53.3335 1.42333 53.3335 1.64095C53.3335 1.85856 53.4199 2.06726 53.5738 2.22114C53.7277 2.37501 53.9364 2.46146 54.154 2.46146C54.3716 2.46146 54.5803 2.37501 54.7342 2.22114C54.8881 2.06726 54.9745 1.85856 54.9745 1.64095C54.9745 1.42333 54.8881 1.21463 54.7342 1.06076C54.5803 0.906881 54.3716 0.820435 54.154 0.820435Z" fill="#F1BC19"/>
<path d="M31.9998 1.64111C23.9481 1.64111 16.2262 4.83964 10.5328 10.5331C4.8394 16.2265 1.64087 23.9484 1.64087 32.0001C1.64087 40.0518 4.8394 47.7737 10.5328 53.4671C16.2262 59.1605 23.9481 62.3591 31.9998 62.3591C40.0515 62.3591 47.7735 59.1605 53.4669 53.4671C59.1603 47.7737 62.3588 40.0518 62.3588 32.0001C62.3588 23.9484 59.1603 16.2265 53.4669 10.5331C47.7735 4.83964 40.0515 1.64111 31.9998 1.64111Z" fill="#E4E4F9"/>
<path d="M59.077 0C58.2065 0 57.3717 0.345786 56.7562 0.96129C56.1407 1.57679 55.7949 2.4116 55.7949 3.28205C55.7949 4.15251 56.1407 4.98731 56.7562 5.60281C57.3717 6.21832 58.2065 6.5641 59.077 6.5641C59.9474 6.5641 60.7822 6.21832 61.3977 5.60281C62.0132 4.98731 62.359 4.15251 62.359 3.28205C62.359 2.4116 62.0132 1.57679 61.3977 0.96129C60.7822 0.345786 59.9474 0 59.077 0Z" fill="#F1BC19"/>
<path d="M62.3588 9.02563C61.9236 9.02563 61.5062 9.19853 61.1984 9.50628C60.8907 9.81403 60.7178 10.2314 60.7178 10.6667C60.7178 11.1019 60.8907 11.5193 61.1984 11.827C61.5062 12.1348 61.9236 12.3077 62.3588 12.3077C62.794 12.3077 63.2114 12.1348 63.5192 11.827C63.8269 11.5193 63.9998 11.1019 63.9998 10.6667C63.9998 10.2314 63.8269 9.81403 63.5192 9.50628C63.2114 9.19853 62.794 9.02563 62.3588 9.02563Z" fill="#8889B9"/>
<path d="M57.4359 51.6923C57.0007 51.6923 56.5833 51.8652 56.2755 52.173C55.9678 52.4807 55.7949 52.8981 55.7949 53.3334C55.7949 53.7686 55.9678 54.186 56.2755 54.4937C56.5833 54.8015 57.0007 54.9744 57.4359 54.9744C57.8711 54.9744 58.2885 54.8015 58.5963 54.4937C58.904 54.186 59.0769 53.7686 59.0769 53.3334C59.0769 52.8981 58.904 52.4807 58.5963 52.173C58.2885 51.8652 57.8711 51.6923 57.4359 51.6923ZM3.28205 39.3846C2.4116 39.3846 1.57679 39.7304 0.96129 40.3459C0.345786 40.9614 0 41.7962 0 42.6667C0 43.5371 0.345786 44.372 0.96129 44.9875C1.57679 45.603 2.4116 45.9487 3.28205 45.9487C4.15251 45.9487 4.98731 45.603 5.60281 44.9875C6.21832 44.372 6.5641 43.5371 6.5641 42.6667C6.5641 41.7962 6.21832 40.9614 5.60281 40.3459C4.98731 39.7304 4.15251 39.3846 3.28205 39.3846Z" fill="#FBCD59"/>
<path d="M11.4872 60.718C11.052 60.718 10.6346 60.8909 10.3268 61.1987C10.0191 61.5064 9.84619 61.9238 9.84619 62.359C9.84619 62.7943 10.0191 63.2117 10.3268 63.5194C10.6346 63.8272 11.052 64.0001 11.4872 64.0001C11.9224 64.0001 12.3398 63.8272 12.6476 63.5194C12.9553 63.2117 13.1282 62.7943 13.1282 62.359C13.1282 61.9238 12.9553 61.5064 12.6476 61.1987C12.3398 60.8909 11.9224 60.718 11.4872 60.718Z" fill="#8889B9"/>
<path d="M6.15382 31.1796C5.60979 31.1796 5.08804 31.3957 4.70335 31.7804C4.31866 32.165 4.10254 32.6868 4.10254 33.2308C4.10254 33.7749 4.31866 34.2966 4.70335 34.6813C5.08804 35.066 5.60979 35.2821 6.15382 35.2821C6.69785 35.2821 7.21961 35.066 7.6043 34.6813C7.98899 34.2966 8.2051 33.7749 8.2051 33.2308C8.2051 32.6868 7.98899 32.165 7.6043 31.7804C7.21961 31.3957 6.69785 31.1796 6.15382 31.1796ZM56.2051 17.2308C55.8787 17.2308 55.5656 17.3605 55.3348 17.5913C55.104 17.8221 54.9743 18.1352 54.9743 18.4616C54.9743 18.788 55.104 19.1011 55.3348 19.3319C55.5656 19.5627 55.8787 19.6924 56.2051 19.6924C56.5315 19.6924 56.8446 19.5627 57.0754 19.3319C57.3062 19.1011 57.4359 18.788 57.4359 18.4616C57.4359 18.1352 57.3062 17.8221 57.0754 17.5913C56.8446 17.3605 56.5315 17.2308 56.2051 17.2308Z" fill="white"/>
<path d="M32 11.9999C29.387 11.9999 26.7996 12.5145 24.3856 13.5145C21.9715 14.5144 19.778 15.9801 17.9304 17.8277C16.0827 19.6754 14.6171 21.8688 13.6171 24.2829C12.6172 26.697 12.1025 29.2843 12.1025 31.8973C12.1025 34.5103 12.6172 37.0977 13.6171 39.5117C14.6171 41.9258 16.0827 44.1193 17.9304 45.9669C19.778 47.8146 21.9715 49.2802 24.3856 50.2801C26.7996 51.2801 29.387 51.7948 32 51.7948C34.6129 51.7948 37.2003 51.2801 39.6144 50.2801C42.0285 49.2802 44.2219 47.8146 46.0696 45.9669C47.9172 44.1193 49.3829 41.9258 50.3828 39.5117C51.3827 37.0977 51.8974 34.5103 51.8974 31.8973C51.8974 29.2843 51.3827 26.697 50.3828 24.2829C49.3829 21.8688 47.9172 19.6754 46.0696 17.8277C44.2219 15.9801 42.0285 14.5144 39.6144 13.5145C37.2003 12.5145 34.6129 11.9999 32 11.9999Z" fill="#A3A3CD"/>
<path d="M31.9999 52.369C20.7121 52.369 11.5281 43.1858 11.5281 31.8972C11.5281 20.6086 20.7121 11.4254 31.9999 11.4254C43.2877 11.4254 52.4717 20.6086 52.4717 31.8972C52.4717 43.1858 43.2877 52.369 31.9999 52.369ZM31.9999 12.5741C21.3455 12.5741 12.6768 21.242 12.6768 31.8972C12.6768 42.5524 21.3455 51.2203 31.9999 51.2203C42.6542 51.2203 51.323 42.5524 51.323 31.8972C51.323 21.242 42.6542 12.5741 31.9999 12.5741Z" fill="#472B29"/>
<path d="M32 14.9062C27.5389 14.9063 23.2605 16.6784 20.1061 19.8329C16.9516 22.9873 15.1794 27.2657 15.1794 31.7268C15.1794 36.1878 16.9516 40.4662 20.1061 43.6207C23.2605 46.7751 27.5389 48.5473 32 48.5473C36.461 48.5473 40.7394 46.7751 43.8939 43.6207C47.0483 40.4662 48.8205 36.1878 48.8205 31.7268C48.8205 27.2657 47.0483 22.9873 43.8939 19.8329C40.7394 16.6784 36.461 14.9063 32 14.9062Z" fill="#565FA1"/>
<path d="M47.9375 27.5894C47.7619 27.5894 47.5994 27.4754 47.5453 27.299C47.4731 27.0635 47.3951 26.8305 47.3122 26.5991C46.9906 25.7014 46.5853 24.8276 46.1061 23.9989C45.992 23.8036 46.0593 23.5517 46.2554 23.4385C46.4515 23.3228 46.7026 23.3917 46.8158 23.5886C47.3196 24.4592 47.7463 25.379 48.0843 26.3217C48.1713 26.5654 48.2534 26.8099 48.3289 27.0577C48.3953 27.2744 48.2739 27.5041 48.0565 27.5706C48.0171 27.5837 47.9769 27.5894 47.9375 27.5894Z" fill="#472B29"/>
<path d="M32 49.0256C22.5551 49.0256 14.8718 41.3644 14.8718 31.9482C14.8718 22.532 22.5551 14.8717 32 14.8717C36.9026 14.8717 41.5787 16.9722 44.8296 20.6342C45.0749 20.9107 45.312 21.1962 45.5393 21.4883C45.678 21.6672 45.646 21.924 45.4679 22.0635C45.2891 22.2038 45.0314 22.171 44.8919 21.9913C44.6753 21.7131 44.4489 21.4424 44.2158 21.179C41.1209 17.6918 36.6679 15.6914 32 15.6914C23.008 15.6914 15.6923 22.9841 15.6923 31.9482C15.6923 40.9123 23.008 48.205 32 48.205C40.992 48.205 48.3077 40.9123 48.3077 31.9482C48.3077 31.1318 48.2462 30.3105 48.1256 29.5088C48.0919 29.2857 48.2462 29.0764 48.4702 29.0428C48.6983 29.0059 48.9034 29.1634 48.9371 29.3874C49.0634 30.2284 49.1282 31.0908 49.1282 31.9482C49.1282 41.3644 41.445 49.0256 32 49.0256Z" fill="#472B29"/>
<path d="M41.4328 25.5076C41.7322 24.1366 41.6018 22.4365 41.034 20.7339C38.0621 20.7339 35.8328 22.9624 35.8328 22.9624C35.8328 22.9624 35.8459 22.9772 35.8492 22.9813C35.7967 22.9804 35.7458 22.9739 35.6924 22.9739H28.3078C28.2725 22.9739 28.2381 22.9788 28.2028 22.9788C28.2053 22.9755 28.2168 22.9624 28.2168 22.9624C28.2168 22.9624 25.9874 20.7339 23.0155 20.7339C22.4543 22.4184 22.3181 24.1013 22.6053 25.4658C21.3113 26.8566 20.513 28.7175 20.513 30.7688C20.513 35.074 24.0026 38.5636 28.3078 38.5636H29.1882C28.1183 39.1454 27.3454 40.1874 27.1427 41.4338C25.7314 41.6241 23.8779 41.5815 23.0172 40.29C21.5312 38.0607 20.7878 38.0607 20.0453 38.0607C19.3027 38.0607 19.3019 38.804 20.0453 39.5466C20.7887 40.29 20.7887 40.29 21.5312 41.7759C22.1647 43.042 23.8385 44.482 27.0779 43.961V46.8516C27.0779 47.2184 27.1427 47.5663 27.2346 47.9035C29.2243 48.377 32.5696 48.7741 36.8059 47.7796C36.8764 47.481 36.9232 47.1733 36.9232 46.8524V42.0803C36.9232 40.5558 36.0641 39.2447 34.812 38.5636H35.6924C39.9977 38.5636 43.4873 35.074 43.4873 30.7688C43.4873 28.738 42.7045 26.8951 41.4328 25.5076Z" fill="#FEFDEF"/>
<path d="M31.6162 48.8087C29.7865 48.8087 28.2726 48.5732 27.1387 48.3032C26.9926 48.2688 26.8769 48.1563 26.8376 48.0119C26.7211 47.5836 26.6669 47.2144 26.6669 46.8525V44.4304C22.9229 44.8521 21.5149 42.663 21.1637 41.9598C20.4499 40.533 20.4499 40.533 19.7549 39.8372C19.1797 39.262 18.9516 38.6409 19.1436 38.1773C19.2823 37.8425 19.6105 37.6505 20.0445 37.6505C21.0431 37.6505 21.8653 37.8236 23.3578 40.062C24.0462 41.0942 25.5535 41.1935 26.7982 41.0614C26.9869 40.2589 27.3922 39.5393 27.9658 38.9658C23.5998 38.7869 20.1028 35.1791 20.1028 30.7689C20.1028 28.7652 20.8339 26.8468 22.1647 25.3428C21.9137 23.9299 22.0761 22.2569 22.6275 20.6043C22.6833 20.437 22.84 20.3237 23.0164 20.3237C25.7709 20.3237 27.8829 22.096 28.3924 22.5637H35.6573C36.1668 22.096 38.2788 20.3237 41.0333 20.3237C41.2097 20.3237 41.3664 20.437 41.4222 20.6043C41.9793 22.2757 42.1377 23.9652 41.8743 25.3879C43.1797 26.8862 43.8968 28.7898 43.8968 30.7697C43.8968 35.1799 40.399 38.7886 36.0322 38.9674C36.8536 39.7855 37.3327 40.8989 37.3327 42.0804V46.8525C37.3327 47.1742 37.2901 47.509 37.2031 47.8749C37.1678 48.0267 37.0488 48.144 36.8979 48.1793C34.9393 48.6396 33.1645 48.8087 31.6162 48.8087ZM27.5711 47.5607C29.5502 48.0013 32.6197 48.2991 36.4573 47.4392C36.4942 47.2316 36.513 47.038 36.513 46.8525V42.0804C36.513 40.7701 35.7861 39.5615 34.616 38.9248C34.4511 38.8353 34.3682 38.645 34.4142 38.4628C34.4601 38.2807 34.6242 38.1535 34.8113 38.1535H35.6925C39.7639 38.1535 43.0772 34.8411 43.0772 30.7689C43.0772 28.9252 42.3855 27.1553 41.1301 25.7851C41.0398 25.6866 41.0037 25.5504 41.0316 25.4208C41.3032 24.176 41.1974 22.6704 40.7362 21.1524C38.3814 21.278 36.5533 22.8542 36.1889 23.1906C36.1143 23.3145 35.9879 23.3924 35.8369 23.3924C35.8312 23.3924 35.7582 23.3875 35.7524 23.3875L28.3079 23.3842C28.1832 23.3842 28.0355 23.3293 27.9453 23.2357L27.928 23.253C27.9075 23.2333 25.9276 21.2919 23.3143 21.1516C22.8573 22.654 22.7481 24.1457 23.0082 25.3805C23.0361 25.511 22.9976 25.6472 22.9065 25.7449C21.6273 27.1192 20.9233 28.9038 20.9233 30.7689C20.9233 34.8411 24.2365 38.1535 28.3079 38.1535H29.1883C29.3762 38.1535 29.5395 38.2807 29.5855 38.4628C29.6322 38.645 29.5494 38.8345 29.3836 38.9248C28.3949 39.4614 27.7254 40.4009 27.5473 41.5003C27.5178 41.6792 27.3766 41.8171 27.1969 41.8409C25.0111 42.1346 23.4488 41.6784 22.6751 40.519C21.3106 38.4727 20.696 38.4727 20.0445 38.4727C19.9321 38.4727 19.896 38.4989 19.896 38.4989C19.8755 38.5514 19.9313 38.8558 20.3342 39.2587C21.1243 40.0489 21.1531 40.1063 21.8973 41.5947C22.2 42.1986 23.4653 44.1325 27.0115 43.5574C27.1321 43.5401 27.2511 43.573 27.343 43.6501C27.4341 43.7289 27.4874 43.8421 27.4874 43.9627V46.8534C27.4874 47.0741 27.5145 47.303 27.5711 47.5607Z" fill="#472B29"/>
<path d="M40.5639 33.1178C39.8254 34.7539 38.2041 36.1143 35.3503 36.3424Z" fill="#FEFDEF"/>
<path d="M35.3502 36.5475C35.2444 36.5475 35.155 36.4654 35.1459 36.3588C35.1369 36.2455 35.2206 36.1471 35.3338 36.138C38.4559 35.8878 39.7991 34.3108 40.3767 33.0332C40.4243 32.929 40.5449 32.8831 40.6483 32.9307C40.7509 32.9774 40.7976 33.098 40.7509 33.2014C39.8704 35.1518 37.9586 36.3391 35.3666 36.5467C35.3617 36.5475 35.356 36.5475 35.3502 36.5475Z" fill="#472B29"/>
<path d="M40.9921 29.8749C41.0832 30.4927 41.0816 31.1483 40.9675 31.7965Z" fill="#FEFDEF"/>
<path d="M40.9683 32.0015C40.956 32.0015 40.9445 32.0006 40.9322 31.9982C40.8206 31.9793 40.7459 31.8726 40.7656 31.761C40.8714 31.1588 40.8797 30.5163 40.7894 29.9042C40.7722 29.7926 40.8501 29.6876 40.9617 29.672C41.0741 29.6556 41.1783 29.7319 41.1947 29.8451C41.2932 30.5089 41.2842 31.1777 41.1693 31.8316C41.1529 31.9317 41.0659 32.0015 40.9683 32.0015Z" fill="#472B29"/>
<path d="M39.4524 26.9744C39.9718 27.3444 40.3927 27.9418 40.6733 28.6605Z" fill="#FEFDEF"/>
<path d="M40.6737 28.8666C40.5916 28.8666 40.5145 28.8165 40.4825 28.7361C40.2084 28.0337 39.8113 27.4823 39.3338 27.1427C39.2419 27.077 39.2197 26.949 39.2854 26.8563C39.3518 26.7636 39.479 26.7431 39.5717 26.8071C40.1149 27.1943 40.5621 27.8097 40.8649 28.5868C40.9059 28.6926 40.8534 28.8108 40.7483 28.8526C40.7237 28.8616 40.6991 28.8666 40.6737 28.8666Z" fill="#472B29"/>
</g>
<defs>
<clipPath id="clip0_88_5561">
<rect width="64" height="64" fill="white"/>
</clipPath>
</defs>
</svg>
