<svg width="64" height="64" viewBox="0 0 64 64" fill="none" xmlns="http://www.w3.org/2000/svg">
<g clip-path="url(#clip0_88_5563)">
<path d="M1.64102 16.4102C2.54732 16.4102 3.28203 15.6755 3.28203 14.7692C3.28203 13.8629 2.54732 13.1282 1.64102 13.1282C0.734708 13.1282 0 13.8629 0 14.7692C0 15.6755 0.734708 16.4102 1.64102 16.4102Z" fill="#EE3E54"/>
<path d="M54.1538 2.46157C54.6069 2.46157 54.9743 2.09422 54.9743 1.64106C54.9743 1.18791 54.6069 0.820557 54.1538 0.820557C53.7006 0.820557 53.3333 1.18791 53.3333 1.64106C53.3333 2.09422 53.7006 2.46157 54.1538 2.46157Z" fill="#F1BC19"/>
<path d="M31.9997 62.3582C48.7664 62.3582 62.3585 48.7661 62.3585 31.9994C62.3585 15.2327 48.7664 1.64062 31.9997 1.64062C15.233 1.64062 1.64087 15.2327 1.64087 31.9994C1.64087 48.7661 15.233 62.3582 31.9997 62.3582Z" fill="#FCE0A2"/>
<path d="M59.0765 6.56406C60.8891 6.56406 62.3585 5.09465 62.3585 3.28203C62.3585 1.46942 60.8891 0 59.0765 0C57.2638 0 55.7944 1.46942 55.7944 3.28203C55.7944 5.09465 57.2638 6.56406 59.0765 6.56406Z" fill="#F1BC19"/>
<path d="M62.359 12.3077C63.2653 12.3077 64 11.573 64 10.6667C64 9.76034 63.2653 9.02563 62.359 9.02563C61.4527 9.02563 60.718 9.76034 60.718 10.6667C60.718 11.573 61.4527 12.3077 62.359 12.3077Z" fill="#EE3E54"/>
<path d="M57.4354 54.9739C58.3418 54.9739 59.0765 54.2392 59.0765 53.3329C59.0765 52.4266 58.3418 51.6919 57.4354 51.6919C56.5291 51.6919 55.7944 52.4266 55.7944 53.3329C55.7944 54.2392 56.5291 54.9739 57.4354 54.9739Z" fill="#FBCD59"/>
<path d="M3.28203 45.9485C5.09465 45.9485 6.56406 44.479 6.56406 42.6664C6.56406 40.8538 5.09465 39.3844 3.28203 39.3844C1.46942 39.3844 0 40.8538 0 42.6664C0 44.479 1.46942 45.9485 3.28203 45.9485Z" fill="#FBCD59"/>
<path d="M11.4875 63.9994C12.3938 63.9994 13.1285 63.2647 13.1285 62.3584C13.1285 61.4521 12.3938 60.7174 11.4875 60.7174C10.5811 60.7174 9.84644 61.4521 9.84644 62.3584C9.84644 63.2647 10.5811 63.9994 11.4875 63.9994Z" fill="#EE3E54"/>
<path d="M6.15381 36.9226C7.28669 36.9226 8.20508 36.0042 8.20508 34.8713C8.20508 33.7385 7.28669 32.8201 6.15381 32.8201C5.02092 32.8201 4.10254 33.7385 4.10254 34.8713C4.10254 36.0042 5.02092 36.9226 6.15381 36.9226Z" fill="white"/>
<path d="M8.20503 46.7692C8.65818 46.7692 9.02554 46.4018 9.02554 45.9487C9.02554 45.4955 8.65818 45.1282 8.20503 45.1282C7.75188 45.1282 7.38452 45.4955 7.38452 45.9487C7.38452 46.4018 7.75188 46.7692 8.20503 46.7692Z" fill="#F1BC19"/>
<path d="M56.6149 19.6923C57.0681 19.6923 57.4354 19.3249 57.4354 18.8718C57.4354 18.4186 57.0681 18.0513 56.6149 18.0513C56.1618 18.0513 55.7944 18.4186 55.7944 18.8718C55.7944 19.3249 56.1618 19.6923 56.6149 19.6923Z" fill="white"/>
<path d="M50.2973 18.6256V45.3741C50.2973 48.09 48.0901 50.2972 45.3742 50.2972H18.6257C15.9098 50.2972 13.7026 48.09 13.7026 45.3741V18.6256C13.7026 15.9097 15.9098 13.7025 18.6257 13.7025H45.3742C48.0901 13.7025 50.2973 15.9097 50.2973 18.6256Z" fill="#3231C7"/>
<path d="M50.2973 30.3916V45.3741C50.2973 48.09 48.0901 50.2972 45.3742 50.2972H18.6257C15.9098 50.2972 13.7026 48.09 13.7026 45.3741V18.6256C13.7026 15.9097 15.9098 13.7025 18.6257 13.7025H33.6082C40.6973 17.4686 46.5312 23.3025 50.2973 30.3916Z" fill="#7228AD"/>
<path d="M48.4101 49.2302C48.4101 49.2384 48.4101 49.2384 48.4101 49.2466C47.5732 49.903 46.523 50.2968 45.3742 50.2968H18.6257C15.9098 50.2968 13.7026 48.0897 13.7026 45.3738V18.6252C13.7026 17.4765 14.0965 16.4263 14.7529 15.5894C14.7611 15.5894 14.7611 15.5894 14.7693 15.5894C33.3456 15.5894 48.4101 30.6539 48.4101 49.2302Z" fill="#B11E93"/>
<path d="M41.8461 49.2306C41.8461 49.5916 41.8379 49.9444 41.8214 50.2972H18.6257C15.9098 50.2972 13.7026 48.0901 13.7026 45.3742V22.1784C14.0555 22.162 14.4083 22.1538 14.7693 22.1538C29.7272 22.1538 41.8461 34.2727 41.8461 49.2306Z" fill="#DB1A58"/>
<path d="M35.282 49.2301C35.282 49.5829 35.2738 49.944 35.2574 50.2968H18.6257C15.9098 50.2968 13.7026 48.0896 13.7026 45.3737V28.742C14.0555 28.7256 14.4165 28.7174 14.7693 28.7174C26.1005 28.7174 35.282 37.8989 35.282 49.2301Z" fill="#E4273E"/>
<path d="M29.5384 49.2303C29.5384 49.5913 29.522 49.9442 29.4974 50.297H18.6257C15.9098 50.297 13.7026 48.0898 13.7026 45.3739V34.5022C14.0555 34.4776 14.4083 34.4612 14.7693 34.4612C22.9251 34.4612 29.5384 41.0745 29.5384 49.2303Z" fill="#F47C22"/>
<path d="M24.6154 49.2305C24.6154 49.5915 24.599 49.9443 24.558 50.2972H18.6257C15.9098 50.2972 13.7026 48.09 13.7026 45.3741V39.4418C14.0555 39.4008 14.4083 39.3844 14.7693 39.3844C20.2093 39.3844 24.6154 43.7905 24.6154 49.2305Z" fill="#EF9922"/>
<path d="M45.3744 50.8715H18.6258C15.5949 50.8715 13.1284 48.4051 13.1284 45.3741V18.6256C13.1284 15.5946 15.5949 13.1282 18.6258 13.1282H45.3744C48.4053 13.1282 50.8718 15.5946 50.8718 18.6256V45.3741C50.8718 48.4051 48.4053 50.8715 45.3744 50.8715ZM18.6258 14.2769C16.2275 14.2769 14.2771 16.2272 14.2771 18.6256V45.3741C14.2771 47.7717 16.2275 49.7228 18.6258 49.7228H45.3744C47.7727 49.7228 49.7231 47.7725 49.7231 45.3741V18.6256C49.7231 16.2281 47.7727 14.2769 45.3744 14.2769H18.6258V14.2769Z" fill="#472B29"/>
<path d="M31.9916 44.6763C28.7244 44.6763 27.5084 44.6672 26.2661 44.6106C25.1273 44.5598 24.2403 44.3883 23.3902 44.0551C22.5648 43.7368 21.9191 43.3175 21.2955 42.6939C20.6776 42.0753 20.2575 41.4287 19.9351 40.5992C19.611 39.7729 19.4395 38.8859 19.3796 37.7233C19.323 36.472 19.314 35.2568 19.314 31.9986C19.314 28.7461 19.323 27.5334 19.3796 26.2813C19.4305 25.1424 19.602 24.2563 19.9343 23.4062C20.2575 22.5685 20.6768 21.9228 21.2955 21.3115C21.9142 20.6936 22.5599 20.2735 23.3911 19.9503C24.2403 19.6179 25.1273 19.4473 26.2661 19.3948C27.5502 19.3373 28.781 19.3209 31.9916 19.3209C35.2031 19.3209 36.4314 19.3373 37.7081 19.3948C38.847 19.4465 39.7339 19.6171 40.5848 19.9503C41.4226 20.2735 42.0675 20.6928 42.6787 21.3115C43.2917 21.917 43.7142 22.5619 44.0482 23.4062C44.3739 24.2645 44.5438 25.1523 44.5955 26.2813C44.6529 27.5777 44.6693 28.8068 44.6693 31.9978C44.6693 35.1953 44.6529 36.4261 44.5955 37.7233C44.5438 38.8531 44.3747 39.7401 44.0482 40.5992C43.7142 41.4344 43.2908 42.081 42.6787 42.6931C42.0691 43.3101 41.4258 43.7302 40.5922 44.0543C39.7315 44.3866 38.8421 44.5581 37.7081 44.609C36.4659 44.6672 35.2523 44.6763 31.9916 44.6763ZM30.9168 21.702C28.6587 21.702 27.4189 21.7193 26.3424 21.7669C25.2413 21.8177 24.6341 22.0023 24.228 22.1574C23.7217 22.356 23.3591 22.5923 22.9767 22.9763C22.5935 23.3586 22.3572 23.7188 22.1619 24.2202C22.0052 24.6288 21.8198 25.2376 21.7689 26.3412C21.7131 27.5769 21.7041 28.7166 21.7041 31.992C21.7041 35.2741 21.7131 36.4146 21.7689 37.6494C21.8198 38.7456 22.0044 39.3528 22.1603 39.7598C22.3564 40.2677 22.5919 40.6303 22.9726 41.0111C23.3607 41.3926 23.7242 41.6281 24.228 41.8266C24.621 41.9809 25.2159 42.1639 26.3416 42.2164C27.6216 42.2738 28.836 42.2894 31.9933 42.2894C35.1572 42.2894 36.3731 42.2738 37.6507 42.2164C38.8035 42.163 39.4123 41.9678 39.77 41.825C40.2656 41.633 40.6267 41.4 41.0123 41.0225C41.3947 40.632 41.6318 40.2685 41.8336 39.7639C41.9862 39.3643 42.1659 38.7653 42.2184 37.6511C42.2751 36.3604 42.2915 35.1444 42.2915 31.992C42.2915 28.8454 42.2751 27.631 42.2184 26.342C42.1667 25.2294 41.9871 24.6304 41.8353 24.2333C41.6392 23.7246 41.4045 23.3627 41.023 22.982C40.6144 22.58 40.282 22.3666 39.7528 22.164C39.3721 22.0122 38.7863 21.8292 37.6523 21.7759C36.3928 21.7184 35.176 21.7029 31.9941 21.7029H30.9168V21.702Z" fill="white"/>
<path d="M31.9918 19.5277C35.1992 19.5277 36.4267 19.5433 37.6993 19.6015C38.8144 19.6516 39.6808 19.819 40.512 20.1431C41.3202 20.4549 41.943 20.8594 42.5362 21.46C43.1261 22.0425 43.5339 22.6661 43.8556 23.4776C44.1747 24.3178 44.3397 25.1851 44.3905 26.2911C44.448 27.5843 44.4636 28.8117 44.4636 31.9994C44.4636 35.1936 44.448 36.4219 44.3905 37.7151C44.3397 38.8228 44.1747 39.69 43.8588 40.5212C43.5339 41.3327 43.1253 41.9579 42.5321 42.5511C41.9446 43.146 41.3235 43.5513 40.5194 43.864C39.68 44.1881 38.8103 44.3554 37.7001 44.4055C36.462 44.4621 35.2501 44.4711 31.9927 44.4711C28.7287 44.4711 27.5143 44.4621 26.2762 44.4055C25.1611 44.3554 24.2947 44.1889 23.4651 43.864C22.6684 43.5563 22.0448 43.1509 21.4426 42.5495C20.8452 41.9514 20.4399 41.3278 20.1273 40.5245C19.8122 39.7196 19.6457 38.8523 19.5866 37.7159C19.53 36.4671 19.5209 35.2535 19.5209 31.9986C19.5209 28.7502 19.53 27.5383 19.5866 26.2903C19.6366 25.1752 19.8032 24.3088 20.1281 23.4784C20.4399 22.6702 20.8444 22.0466 21.4434 21.4559C22.0399 20.8594 22.6643 20.454 23.4676 20.1414C24.2955 19.8181 25.1619 19.6508 26.277 19.5999C27.557 19.5433 28.7853 19.5277 31.9918 19.5277ZM31.9918 42.4937C35.1598 42.4937 36.3775 42.4781 37.6591 42.4207C38.8431 42.3657 39.4732 42.163 39.84 42.0162C40.3659 41.8127 40.7467 41.5674 41.1602 41.162C41.5598 40.7542 41.8092 40.3711 42.0242 39.8328C42.1809 39.4217 42.368 38.8031 42.4205 37.6593C42.4779 36.3662 42.4935 35.1477 42.4935 31.9912C42.4935 28.8413 42.4779 27.6245 42.4205 26.3313C42.3672 25.19 42.1809 24.5714 42.0242 24.157C41.8199 23.6278 41.5631 23.2331 41.1635 22.8327C40.7385 22.4151 40.3758 22.1812 39.8301 21.9728C39.4314 21.8136 38.825 21.6241 37.6599 21.5691C36.3971 21.5117 35.1787 21.4961 31.9927 21.4961H30.917C28.6557 21.4961 27.4134 21.5133 26.332 21.5609C25.203 21.6134 24.5753 21.8038 24.1511 21.9654C23.6251 22.1714 23.2305 22.4298 22.8309 22.8294C22.4313 23.2282 22.1736 23.6212 21.9685 24.1463C21.8069 24.5672 21.6149 25.1966 21.5624 26.3305C21.5057 27.5703 21.4967 28.7108 21.4967 31.9904C21.4967 35.2757 21.5049 36.4187 21.5624 37.6576C21.6149 38.7834 21.8061 39.4102 21.9669 39.832C22.1736 40.3686 22.4231 40.7518 22.8284 41.1571C23.2313 41.5526 23.6268 41.8094 24.1519 42.0153C24.5589 42.1745 25.1751 42.3649 26.3312 42.419C27.6144 42.4781 28.8312 42.4937 31.9918 42.4937ZM31.9918 19.1174C28.7172 19.1174 27.5168 19.1347 26.2573 19.1913C25.0946 19.2438 24.188 19.4202 23.3174 19.7599C22.4584 20.0947 21.7913 20.5287 21.1521 21.1662C20.5121 21.7989 20.0772 22.4667 19.7441 23.3316C19.4028 24.2029 19.2272 25.1104 19.1755 26.2723C19.1189 27.5334 19.1099 28.7494 19.1099 31.9986C19.1099 35.2552 19.1189 36.472 19.1755 37.7339C19.237 38.9188 19.4126 39.8254 19.7441 40.6738C20.0781 41.5312 20.5129 42.1991 21.1513 42.8391C21.7962 43.4841 22.4649 43.9173 23.3166 44.2463C24.188 44.5876 25.0955 44.7632 26.2573 44.8149C27.5184 44.8724 28.7352 44.8814 31.9918 44.8814C35.2411 44.8814 36.4562 44.8732 37.7182 44.8149C38.8751 44.7632 39.785 44.5876 40.6671 44.2463C41.5294 43.9107 42.194 43.4767 42.8242 42.8391C43.4568 42.2065 43.8933 41.5403 44.2404 40.673C44.576 39.791 44.7483 38.8843 44.8016 37.7331C44.8574 36.4728 44.8755 35.2716 44.8755 31.9986C44.8755 28.7338 44.8582 27.5326 44.8016 26.2723C44.7491 25.1219 44.5768 24.2161 44.2396 23.3307C43.8941 22.4594 43.4576 21.7915 42.825 21.1671C42.1924 20.5271 41.5253 20.093 40.6597 19.7591C39.7875 19.4177 38.88 19.243 37.7182 19.1905C36.4661 19.1347 35.2673 19.1174 31.9918 19.1174ZM31.9918 42.0835C28.8394 42.0835 27.6267 42.0679 26.35 42.0104C25.2538 41.9596 24.6795 41.7823 24.302 41.6346C23.8245 41.4467 23.4815 41.2244 23.1164 40.865C22.7546 40.5032 22.5379 40.1708 22.35 39.6851C22.2007 39.2945 22.0227 38.7046 21.9726 37.6388C21.9168 36.4146 21.9078 35.2749 21.9078 31.9904C21.9078 28.7125 21.9168 27.5744 21.9726 26.3494C22.0227 25.2762 22.2007 24.687 22.3517 24.2932C22.5363 23.8222 22.7595 23.4809 23.1213 23.1199C23.4824 22.758 23.8237 22.5348 24.3012 22.3478C24.6893 22.2001 25.2793 22.0204 26.3517 21.9712C27.4216 21.9252 28.6606 21.9072 30.917 21.9072H31.9927C35.1729 21.9072 36.3865 21.9227 37.6419 21.9794C38.7463 22.0311 39.3099 22.2066 39.6784 22.3543C40.1805 22.5463 40.4907 22.7465 40.8763 23.1256C41.234 23.4834 41.4572 23.8263 41.6427 24.3055C41.7871 24.6854 41.9618 25.2655 42.0119 26.351C42.0685 27.6286 42.0849 28.8421 42.0849 31.992C42.0849 35.1485 42.0685 36.3637 42.0119 37.642C41.961 38.7268 41.7879 39.3052 41.6418 39.6884C41.4498 40.1692 41.2308 40.5056 40.8681 40.8765C40.503 41.235 40.1698 41.4508 39.6931 41.6346C39.3452 41.7733 38.766 41.9596 37.641 42.0112C36.3651 42.0679 35.1508 42.0835 31.9918 42.0835Z" fill="#472B29"/>
<path d="M38.9742 26.4611C38.1824 26.4611 37.5383 25.817 37.5383 25.0252C37.5383 24.2335 38.1824 23.5894 38.9742 23.5894H38.975C39.3582 23.5894 39.7184 23.7387 39.9892 24.0095C40.2608 24.281 40.4101 24.6412 40.4101 25.0244C40.4101 25.817 39.766 26.4611 38.9742 26.4611Z" fill="white"/>
<path d="M38.974 23.7947C39.6534 23.7947 40.2048 24.346 40.2048 25.0254C40.2048 25.7048 39.6534 26.2562 38.974 26.2562C38.2946 26.2562 37.7433 25.7048 37.7433 25.0254C37.7433 24.346 38.2946 23.7955 38.974 23.7947ZM38.974 23.3844C38.069 23.3852 37.333 24.1212 37.333 25.0254C37.333 25.9304 38.069 26.6664 38.974 26.6664C39.879 26.6664 40.615 25.9304 40.615 25.0254C40.615 24.1204 39.879 23.3844 38.974 23.3844Z" fill="#472B29"/>
<path d="M31.9898 25.0288C28.1375 25.0288 25.0146 28.1517 25.0146 32.0039C25.0146 35.8562 28.1375 38.9774 31.9898 38.9774C35.8421 38.9774 38.9633 35.8554 38.9633 32.0039C38.9633 28.1525 35.8413 25.0288 31.9898 25.0288ZM31.9898 27.4912C34.4817 27.4912 36.5026 29.5112 36.5026 32.0039C36.5026 34.4958 34.4817 36.5167 31.9898 36.5167C29.4971 36.5167 27.477 34.4958 27.477 32.0039C27.477 29.5112 29.4971 27.4912 31.9898 27.4912Z" fill="white"/>
<path d="M31.9898 39.1826C28.0309 39.1826 24.8096 35.9621 24.8096 32.0032C24.8096 28.0442 28.0309 24.8237 31.9898 24.8237C35.948 24.8237 39.1685 28.0442 39.1685 32.0032C39.1685 35.9621 35.948 39.1826 31.9898 39.1826ZM31.9898 25.234C28.2565 25.234 25.2198 28.2707 25.2198 32.0032C25.2198 35.7357 28.2565 38.7724 31.9898 38.7724C35.7223 38.7724 38.7582 35.7357 38.7582 32.0032C38.7582 28.2707 35.7223 25.234 31.9898 25.234ZM31.9898 36.7211C29.388 36.7211 27.2719 34.6042 27.2719 32.0032C27.2719 29.4022 29.388 27.2853 31.9898 27.2853C34.5917 27.2853 36.7078 29.4022 36.7078 32.0032C36.7078 34.6042 34.5917 36.7211 31.9898 36.7211ZM31.9898 27.6955C29.6145 27.6955 27.6822 29.6278 27.6822 32.0032C27.6822 34.3785 29.6145 36.3108 31.9898 36.3108C34.3652 36.3108 36.2975 34.3785 36.2975 32.0032C36.2975 29.6278 34.3652 27.6955 31.9898 27.6955Z" fill="#472B29"/>
</g>
<defs>
<clipPath id="clip0_88_5563">
<rect width="64" height="64" fill="white"/>
</clipPath>
</defs>
</svg>
