<svg width="64" height="64" viewBox="0 0 64 64" fill="none" xmlns="http://www.w3.org/2000/svg">
<g clip-path="url(#clip0_88_5565)">
<path d="M1.64103 13.1282C1.2058 13.1282 0.788398 13.3011 0.480646 13.6088C0.172894 13.9166 0 14.334 0 14.7692C0 15.2044 0.172894 15.6218 0.480646 15.9296C0.788398 16.2373 1.2058 16.4102 1.64103 16.4102C2.07625 16.4102 2.49365 16.2373 2.80141 15.9296C3.10916 15.6218 3.28205 15.2044 3.28205 14.7692C3.28205 14.334 3.10916 13.9166 2.80141 13.6088C2.49365 13.3011 2.07625 13.1282 1.64103 13.1282Z" fill="#EE3E54"/>
<path d="M54.1538 0.820557C53.9362 0.820557 53.7274 0.907003 53.5736 1.06088C53.4197 1.21476 53.3333 1.42346 53.3333 1.64107C53.3333 1.85868 53.4197 2.06738 53.5736 2.22126C53.7274 2.37514 53.9362 2.46158 54.1538 2.46158C54.3714 2.46158 54.5801 2.37514 54.734 2.22126C54.8878 2.06738 54.9743 1.85868 54.9743 1.64107C54.9743 1.42346 54.8878 1.21476 54.734 1.06088C54.5801 0.907003 54.3714 0.820557 54.1538 0.820557Z" fill="#F1BC19"/>
<path d="M32.0001 1.64087C23.9484 1.64087 16.2265 4.8394 10.5331 10.5328C4.83964 16.2262 1.64111 23.9481 1.64111 31.9998C1.64111 40.0515 4.83964 47.7735 10.5331 53.4669C16.2265 59.1603 23.9484 62.3588 32.0001 62.3588C40.0518 62.3588 47.7737 59.1603 53.4671 53.4669C59.1605 47.7735 62.3591 40.0515 62.3591 31.9998C62.3591 23.9481 59.1605 16.2262 53.4671 10.5328C47.7737 4.8394 40.0518 1.64087 32.0001 1.64087V1.64087Z" fill="#FCE0A2"/>
<path d="M59.0767 0C58.2063 0 57.3715 0.345786 56.756 0.96129C56.1405 1.57679 55.7947 2.4116 55.7947 3.28205C55.7947 4.15251 56.1405 4.98731 56.756 5.60281C57.3715 6.21832 58.2063 6.5641 59.0767 6.5641C59.9472 6.5641 60.782 6.21832 61.3975 5.60281C62.013 4.98731 62.3588 4.15251 62.3588 3.28205C62.3588 2.4116 62.013 1.57679 61.3975 0.96129C60.782 0.345786 59.9472 0 59.0767 0V0Z" fill="#F1BC19"/>
<path d="M62.359 9.02563C61.9238 9.02563 61.5064 9.19853 61.1987 9.50628C60.8909 9.81403 60.718 10.2314 60.718 10.6667C60.718 11.1019 60.8909 11.5193 61.1987 11.827C61.5064 12.1348 61.9238 12.3077 62.359 12.3077C62.7943 12.3077 63.2117 12.1348 63.5194 11.827C63.8272 11.5193 64.0001 11.1019 64.0001 10.6667C64.0001 10.2314 63.8272 9.81403 63.5194 9.50628C63.2117 9.19853 62.7943 9.02563 62.359 9.02563Z" fill="#EE3E54"/>
<path d="M57.4359 51.6923C57.0007 51.6923 56.5833 51.8652 56.2755 52.173C55.9678 52.4807 55.7949 52.8981 55.7949 53.3334C55.7949 53.7686 55.9678 54.186 56.2755 54.4937C56.5833 54.8015 57.0007 54.9744 57.4359 54.9744C57.8711 54.9744 58.2885 54.8015 58.5963 54.4937C58.904 54.186 59.0769 53.7686 59.0769 53.3334C59.0769 52.8981 58.904 52.4807 58.5963 52.173C58.2885 51.8652 57.8711 51.6923 57.4359 51.6923ZM3.28205 39.3846C2.4116 39.3846 1.57679 39.7304 0.96129 40.3459C0.345786 40.9614 0 41.7962 0 42.6667C0 43.5371 0.345786 44.372 0.96129 44.9875C1.57679 45.603 2.4116 45.9487 3.28205 45.9487C4.15251 45.9487 4.98731 45.603 5.60281 44.9875C6.21832 44.372 6.5641 43.5371 6.5641 42.6667C6.5641 41.7962 6.21832 40.9614 5.60281 40.3459C4.98731 39.7304 4.15251 39.3846 3.28205 39.3846Z" fill="#FBCD59"/>
<path d="M11.4872 60.7181C11.052 60.7181 10.6346 60.891 10.3268 61.1988C10.0191 61.5065 9.84619 61.9239 9.84619 62.3592C9.84619 62.7944 10.0191 63.2118 10.3268 63.5195C10.6346 63.8273 11.052 64.0002 11.4872 64.0002C11.9224 64.0002 12.3398 63.8273 12.6476 63.5195C12.9553 63.2118 13.1282 62.7944 13.1282 62.3592C13.1282 61.9239 12.9553 61.5065 12.6476 61.1988C12.3398 60.891 11.9224 60.7181 11.4872 60.7181Z" fill="#EE3E54"/>
<path d="M6.15358 32.8206C5.60954 32.8206 5.08779 33.0367 4.7031 33.4214C4.31841 33.8061 4.10229 34.3278 4.10229 34.8718C4.10229 35.4159 4.31841 35.9376 4.7031 36.3223C5.08779 36.707 5.60954 36.9231 6.15358 36.9231C6.69761 36.9231 7.21936 36.707 7.60405 36.3223C7.98874 35.9376 8.20486 35.4159 8.20486 34.8718C8.20486 34.3278 7.98874 33.8061 7.60405 33.4214C7.21936 33.0367 6.69761 32.8206 6.15358 32.8206V32.8206Z" fill="white"/>
<path d="M8.20552 45.1282C7.98791 45.1282 7.77921 45.2146 7.62533 45.3685C7.47146 45.5224 7.38501 45.7311 7.38501 45.9487C7.38501 46.1663 7.47146 46.375 7.62533 46.5289C7.77921 46.6828 7.98791 46.7692 8.20552 46.7692C8.42314 46.7692 8.63184 46.6828 8.78571 46.5289C8.93959 46.375 9.02604 46.1663 9.02604 45.9487C9.02604 45.7311 8.93959 45.5224 8.78571 45.3685C8.63184 45.2146 8.42314 45.1282 8.20552 45.1282Z" fill="#F1BC19"/>
<path d="M56.6152 18.0513C56.3976 18.0513 56.1889 18.1377 56.035 18.2916C55.8811 18.4455 55.7947 18.6542 55.7947 18.8718C55.7947 19.0894 55.8811 19.2981 56.035 19.452C56.1889 19.6058 56.3976 19.6923 56.6152 19.6923C56.8328 19.6923 57.0415 19.6058 57.1954 19.452C57.3493 19.2981 57.4357 19.0894 57.4357 18.8718C57.4357 18.6542 57.3493 18.4455 57.1954 18.2916C57.0415 18.1377 56.8328 18.0513 56.6152 18.0513Z" fill="white"/>
<path d="M19.6926 50.2974C16.4106 50.2974 13.7029 47.5897 13.7029 44.3076V19.6923C13.7029 16.4102 16.4106 13.7025 19.6926 13.7025H44.308C47.5901 13.7025 50.2978 16.4102 50.2978 19.6923V44.3076C50.2978 47.5897 47.5901 50.2974 44.308 50.2974H19.6926Z" fill="#127AD8"/>
<path d="M44.3079 14.2769C47.2617 14.2769 49.7233 16.7384 49.7233 19.6923V44.3077C49.7233 47.2615 47.2617 49.723 44.3079 49.723H19.6925C16.7387 49.723 14.2771 47.2615 14.2771 44.3077V19.6923C14.2771 16.7384 16.7387 14.2769 19.6925 14.2769H44.3079ZM44.3079 13.1282H19.6925C16.0823 13.1282 13.1284 16.082 13.1284 19.6923V44.3077C13.1284 47.9179 16.0823 50.8718 19.6925 50.8718H44.3079C47.9182 50.8718 50.872 47.9179 50.872 44.3077V19.6923C50.872 16.082 47.9182 13.1282 44.3079 13.1282Z" fill="#472B29"/>
<path d="M43.1592 47.1795H20.9233C18.7079 47.1795 16.9849 45.3744 16.9849 43.2411V20.759C16.9849 18.5436 18.79 16.8206 20.9233 16.8206H43.1592C45.3746 16.8206 47.0977 18.6257 47.0977 20.759V43.159C47.0977 45.3744 45.3746 47.1795 43.1592 47.1795Z" fill="#FDFCEE"/>
<path d="M47.1795 29.8667C46.9334 29.8667 46.7693 29.7026 46.7693 29.4564V26.2564C46.7693 26.0103 46.9334 25.8462 47.1795 25.8462C47.4257 25.8462 47.5898 26.0103 47.5898 26.2564V29.4564C47.5898 29.7026 47.4257 29.8667 47.1795 29.8667Z" fill="#472B29"/>
<path d="M47.1795 24.2053C46.9334 24.2053 46.7693 24.0412 46.7693 23.7951V22.154C46.7693 21.9079 46.9334 21.7438 47.1795 21.7438C47.4257 21.7438 47.5898 21.9079 47.5898 22.154V23.7951C47.5898 24.0412 47.4257 24.2053 47.1795 24.2053Z" fill="#472B29"/>
<path d="M43.4873 47.5898H20.513C18.2155 47.5898 16.4104 45.7846 16.4104 43.4872V20.5128C16.4104 18.2154 18.2155 16.4103 20.513 16.4103H41.354C41.6001 16.4103 41.7642 16.5744 41.7642 16.8205C41.7642 17.0667 41.6001 17.2308 41.354 17.2308H20.513C18.7078 17.2308 17.2309 18.7077 17.2309 20.5128V43.4872C17.2309 45.2923 18.7078 46.7693 20.513 46.7693H43.4873C45.2925 46.7693 46.7694 45.2923 46.7694 43.4872V31.6718C46.7694 31.4257 46.9335 31.2616 47.1796 31.2616C47.4258 31.2616 47.5899 31.4257 47.5899 31.6718V43.4872C47.5899 45.7846 45.7848 47.5898 43.4873 47.5898Z" fill="#472B29"/>
<path d="M40.6154 33.3131V38.9747H37.2513L37.1693 33.3131C37.1693 31.9183 36.5129 30.8516 35.2 30.8516C34.2154 30.8516 33.6411 31.508 33.3949 32.1644C33.3129 32.4106 33.3129 32.7388 33.3129 32.9849V38.8926H29.8667C29.8667 38.8926 29.9488 29.2926 29.8667 28.308H33.3129V29.949C33.8052 29.1285 34.6257 28.226 36.5129 28.226C38.8923 28.308 40.6154 29.7849 40.6154 33.3131Z" fill="#127AD8"/>
<path d="M40.6153 39.3845H37.2512C37.005 39.3845 36.8409 39.2204 36.8409 38.9743L36.7589 33.3127C36.7589 32.7384 36.5948 31.2615 35.1999 31.2615C34.2973 31.2615 33.8871 31.9999 33.723 32.3281C33.723 32.4102 33.6409 32.6563 33.6409 33.0666V38.9743C33.6409 39.2204 33.4768 39.3845 33.2307 39.3845H29.7845C29.7025 39.3845 29.5384 39.3025 29.4563 39.3025C29.3743 39.2204 29.3743 39.1384 29.3743 38.9743C29.3743 38.8922 29.4563 29.3743 29.3743 28.3897C29.3743 28.3076 29.3743 28.1435 29.4563 28.0615C29.5384 27.9794 29.6204 27.8974 29.7845 27.8974H33.2307C33.4768 27.8974 33.6409 28.0615 33.6409 28.3076V28.7999C34.3794 28.1435 35.282 27.8153 36.4307 27.8153C37.7435 27.8153 38.7281 28.2256 39.5486 28.964C40.4512 29.8666 40.9435 31.3435 40.9435 33.2307V38.8922C41.0256 39.2204 40.8614 39.3845 40.6153 39.3845ZM37.6614 38.564H40.205V33.3127C40.205 31.6717 39.7948 30.4409 39.0563 29.6204C38.482 29.0461 37.5794 28.7179 36.5948 28.7179C34.8717 28.7179 34.1332 29.5384 33.723 30.1948C33.5589 30.523 33.1486 30.523 32.9845 30.2768C32.9025 30.1948 32.9025 30.0307 32.9845 29.9486V28.7999H30.3589C30.3589 30.605 30.3589 36.923 30.3589 38.564H32.9845V33.0666C32.9845 32.6563 33.0666 32.3281 33.1486 32.082C33.5589 31.0974 34.3794 30.523 35.364 30.523C36.8409 30.523 37.7435 31.5897 37.7435 33.3948L37.6614 38.564Z" fill="#472B29"/>
<path d="M25.7643 23.6305C24.7797 23.6305 24.1233 24.2869 24.1233 25.2715C24.1233 26.1741 24.7797 26.9125 25.7643 26.9125C26.831 26.9125 27.4053 26.1741 27.4053 25.2715C27.4053 24.2869 26.7489 23.6305 25.7643 23.6305Z" fill="#127AD8"/>
<path d="M25.7644 27.241C24.5336 27.241 23.7131 26.4205 23.7131 25.1897C23.7131 23.9589 24.6157 23.1384 25.7644 23.1384C26.9131 23.1384 27.8157 23.9589 27.8157 25.1077C27.8157 26.4205 26.9131 27.241 25.7644 27.241ZM25.7644 24.041C25.026 24.041 24.5336 24.5333 24.5336 25.2718C24.5336 26.0102 25.026 26.5025 25.7644 26.5025C26.5029 26.5025 27.0772 26.0102 27.0772 25.2718C26.9952 24.5333 26.5029 24.041 25.7644 24.041Z" fill="#472B29"/>
<path d="M24.1233 28.39H27.5694V38.9746H24.1233V28.39Z" fill="#127AD8"/>
<path d="M27.5695 39.3845H24.1234C23.8772 39.3845 23.7131 39.2204 23.7131 38.9742V28.3896C23.7131 28.1435 23.8772 27.9794 24.1234 27.9794H27.5695C27.8157 27.9794 27.9798 28.1435 27.9798 28.3896V38.9742C27.9798 39.2204 27.8157 39.3845 27.5695 39.3845ZM24.5336 38.564H27.1593V28.7999H24.5336V38.564Z" fill="#472B29"/>
</g>
<defs>
<clipPath id="clip0_88_5565">
<rect width="64" height="64" fill="white"/>
</clipPath>
</defs>
</svg>
