<svg width="64" height="64" viewBox="0 0 64 64" fill="none" xmlns="http://www.w3.org/2000/svg">
<path fill-rule="evenodd" clip-rule="evenodd" d="M17.5374 0.0717339C17.4439 0.110409 17.1761 0.169271 16.9424 0.202846C16.7086 0.236208 16.4326 0.318019 16.3291 0.384532C16.2257 0.451043 16.0852 0.505443 16.0172 0.505443C15.9494 0.505443 15.7853 0.560906 15.653 0.628692C15.5208 0.696268 15.355 0.774253 15.2849 0.801878C14.4596 1.12679 13.0052 2.47041 12.4064 3.4615C12.0112 4.11558 11.7007 4.86187 11.481 5.68572C11.0702 7.22657 11.297 35.7922 11.7237 36.2434C11.7655 36.2878 11.7999 36.3868 11.7999 36.4635C11.7999 37.1327 13.4315 39.4109 14.4462 40.1582C15.4345 40.8865 15.6538 40.8763 14.9566 40.1349C14.7689 39.9353 14.5913 39.6963 14.562 39.6036C14.5325 39.511 14.4728 39.4351 14.4292 39.4351C14.3857 39.4351 14.3499 39.3777 14.3499 39.3076C14.3499 39.2375 14.317 39.1801 14.2766 39.1801C14.0845 39.1801 12.99 36.6758 12.99 36.2364C12.99 36.1335 12.9498 36.036 12.9009 36.0196C12.6553 35.9378 12.6202 34.0483 12.614 20.6078C12.6079 6.9737 12.6277 5.93371 12.8983 5.66299C12.9487 5.61263 12.99 5.49894 12.99 5.41032C12.99 4.95686 13.9963 3.43282 14.6049 2.96447C15.3364 2.40156 15.6289 2.20543 15.7369 2.20543C15.8041 2.20543 15.9067 2.14806 15.9649 2.07793C16.0231 2.00781 16.1379 1.95043 16.2199 1.95043C16.302 1.95043 16.4167 1.89305 16.4749 1.82293C16.5331 1.75281 16.7112 1.69543 16.8708 1.69543C17.0304 1.69543 17.2535 1.63487 17.3666 1.56071C17.6768 1.35735 19.8919 1.35097 20.2744 1.55221C20.424 1.63105 20.663 1.69543 20.8056 1.69543C20.9482 1.69543 21.0648 1.73071 21.0648 1.77363C21.0648 1.81677 21.1771 1.87648 21.3139 1.90665C21.451 1.93683 21.6086 2.0163 21.6643 2.08346C21.72 2.15061 21.7954 2.20543 21.8318 2.20543C21.9193 2.20543 22.6592 2.70714 22.9631 2.97254C23.3845 3.34059 24.1076 4.35378 24.3875 4.96854C24.9596 6.22504 24.9171 5.11644 24.9738 20.2253C25.0281 34.6711 25.0145 34.1941 25.417 35.7377C25.8291 37.3167 26.8729 38.8852 28.2405 39.9802C28.7412 40.381 29.6026 40.8801 29.7934 40.8801C29.8835 40.8801 30.0314 40.9362 30.1224 41.0048C30.2161 41.0758 30.4753 41.1309 30.7229 41.1323C30.9624 41.1339 31.3211 41.1925 31.5197 41.2626C32.0447 41.4477 40.4608 41.4477 40.7847 41.2626C40.9015 41.1959 41.1526 41.1398 41.3423 41.1381C41.5319 41.1364 41.7614 41.079 41.8523 41.0103C41.943 40.9417 42.096 40.8844 42.1923 40.8828C42.2883 40.8814 42.4413 40.824 42.5323 40.7553C42.623 40.6867 42.7422 40.6294 42.7973 40.6278C42.9218 40.6245 44.044 39.8841 44.4259 39.5533C44.8908 39.1503 45.3746 38.674 45.3746 38.6187C45.3746 38.5902 45.4798 38.4277 45.6084 38.257C45.8895 37.8839 46.0217 37.6775 46.1598 37.3951C46.217 37.2783 46.2835 37.1635 46.308 37.1401C47.1201 36.3596 47.2391 32.571 46.5028 30.9352C46.2657 30.4084 46.1188 30.1356 45.8717 29.7622C45.7385 29.5612 45.6296 29.3644 45.6296 29.3251C45.6296 29.2856 45.5723 29.2314 45.5021 29.2044C45.432 29.1776 45.3746 29.1179 45.3746 29.072C45.3746 28.9938 44.5567 28.1302 44.4828 28.1302C44.4643 28.1302 44.3037 27.9965 44.1256 27.8332C43.9477 27.6697 43.7576 27.5359 43.7029 27.5356C43.6485 27.5354 43.5911 27.5023 43.5755 27.4621C43.5435 27.3799 42.3024 26.7702 42.1668 26.7702C42.1186 26.7702 41.9696 26.7131 41.8357 26.6431C41.7019 26.5735 41.4736 26.5161 41.3287 26.5156C41.1838 26.5154 40.9543 26.478 40.8187 26.4328C40.3629 26.2804 40.0815 26.2743 33.2971 26.2672L26.532 26.2602L26.4266 26.0288C26.3452 25.8501 26.3195 23.8567 26.3133 17.2526C26.3055 8.67791 26.2494 5.62665 26.0977 5.52997C26.0528 5.50128 25.9878 5.34403 25.9532 5.1804C25.9185 5.01678 25.8401 4.78728 25.7791 4.67041C25.718 4.55354 25.5849 4.28579 25.4834 4.07542C24.6786 2.40687 23.4652 1.3395 21.2773 0.374544C20.6482 0.097234 17.9966 -0.117602 17.5374 0.0717339ZM17.7074 3.54183C16.878 3.79576 16.3427 4.11494 15.7958 4.6821C15.3858 5.10688 15.3463 5.16383 15.1262 5.6479C15.0197 5.88165 14.8877 6.1494 14.8325 6.24289C14.7046 6.46007 14.6419 33.9068 14.7675 34.71C14.9192 35.6803 15.2705 36.7387 15.6307 37.3101C15.6748 37.3803 15.7365 37.495 15.7677 37.5651C15.8944 37.8499 17.0788 39.3276 17.3698 39.5639C17.5417 39.7035 17.7261 39.8584 17.7797 39.9086C18.0474 40.1576 18.7673 40.613 18.8028 40.5556C18.8249 40.5197 18.6562 40.2815 18.4278 40.0265C18.1991 39.7713 18.0106 39.5322 18.0085 39.4952C18.0049 39.4262 17.9054 39.2925 17.6437 39.004C17.5619 38.9139 17.4949 38.7827 17.4949 38.7126C17.4949 38.6425 17.4605 38.5851 17.4182 38.5851C17.3761 38.5851 17.3 38.4799 17.2494 38.3514C17.1989 38.2228 17.1209 38.0602 17.0762 37.9901C16.9218 37.747 16.5722 36.9209 16.5174 36.6699C16.4872 36.5311 16.4097 36.2838 16.3451 36.1202C15.9842 35.207 15.9719 34.7004 15.9702 20.6928C15.9683 6.37422 15.9539 6.89866 16.3718 6.2004C16.5561 5.89249 17.4224 5.09583 17.5763 5.09264C17.6483 5.09116 17.7815 5.03378 17.8723 4.96515C18.0948 4.79706 19.4269 4.79132 19.6647 4.95771C19.7569 5.0221 19.898 5.08903 19.9781 5.10646C20.1811 5.15023 21.0557 5.87952 21.0608 6.00915C21.0629 6.06759 21.098 6.1154 21.1384 6.1154C21.1788 6.1154 21.2931 6.35594 21.3924 6.64984L21.573 7.18407L21.598 21.0785C21.6118 28.7203 21.6446 35.0301 21.6707 35.1002C21.6968 35.1703 21.747 35.3424 21.7818 35.4827C22.23 37.2791 23.3335 38.9088 24.9376 40.1436C25.7915 40.8008 25.7421 40.5312 24.8236 39.5209C24.7168 39.4037 24.6074 39.2215 24.5804 39.1163C24.5534 39.0112 24.5045 38.9251 24.4716 38.9251C24.4151 38.9251 23.8805 37.9028 23.6495 37.3526C23.5906 37.2124 23.4822 36.9581 23.4087 36.7874C23.335 36.6165 23.2742 36.4062 23.2736 36.3199C23.2729 36.2334 23.2194 36.0097 23.1548 35.8227C22.9266 35.1637 22.9025 33.911 22.8552 20.1828C22.8103 7.20087 22.798 6.31068 22.6586 6.0559C22.5768 5.9063 22.5099 5.7397 22.5099 5.68551C22.5099 5.20675 20.6981 3.65042 20.1405 3.65042C20.0525 3.65042 19.8432 3.59304 19.6755 3.52292C19.2848 3.35972 18.2703 3.36949 17.7074 3.54183ZM18.6093 6.85576C18.1381 7.0423 18.1749 5.84425 18.1749 21.019C18.1749 32.8689 18.1927 34.9217 18.298 35.2587C18.3657 35.4754 18.4896 35.8822 18.5733 36.1627C18.6568 36.4432 18.8311 36.8561 18.9601 37.0802C19.0893 37.3042 19.1949 37.5084 19.1949 37.5337C19.1949 37.9327 21.5114 40.3701 21.8907 40.3701C21.9508 40.3701 21.9998 40.4084 21.9998 40.4551C21.9998 40.5019 22.0591 40.5401 22.1316 40.5401C22.2969 40.5401 22.2344 40.4273 21.7873 39.919C21.2969 39.3612 21.1498 39.1591 21.1498 39.0424C21.1498 38.9857 21.1139 38.9266 21.0702 38.9109C20.7374 38.7926 19.8664 36.5804 19.6033 35.1852C19.5462 34.8824 19.4962 29.8714 19.4614 20.9616L19.4074 7.20552L19.1689 7.00046C18.9297 6.79474 18.8287 6.76864 18.6093 6.85576ZM20.8507 16.3153C20.8507 21.0137 20.861 22.9357 20.8736 20.5865C20.8862 18.2373 20.8862 14.3932 20.8736 12.0441C20.861 9.6949 20.8507 11.617 20.8507 16.3153ZM20.849 30.5527C20.849 32.6564 20.86 33.5049 20.8736 32.4382C20.887 31.3714 20.887 29.6502 20.8736 28.6132C20.86 27.5763 20.849 28.4489 20.849 30.5527ZM40.8994 27.8253C41.0467 27.8913 41.3106 27.9696 41.4859 27.9991C41.6612 28.0287 41.8047 28.0894 41.8047 28.1341C41.8047 28.1787 41.8614 28.2152 41.9309 28.2152C42.3824 28.2152 43.9877 29.4579 44.5729 30.2603C46.7323 33.2217 45.5812 37.7445 42.2722 39.301C42.0852 39.389 41.8306 39.5124 41.7065 39.5756C41.5824 39.6385 41.3892 39.6901 41.2773 39.6901C41.1653 39.6901 41.0259 39.738 40.9674 39.7964C40.7968 39.9672 31.5149 39.9961 31.0523 39.8272C30.8653 39.7589 30.588 39.678 30.436 39.6474C30.2841 39.6166 30.1598 39.5565 30.1598 39.5133C30.1598 39.4704 30.0922 39.4351 30.0096 39.4351C29.642 39.4351 28.5448 38.499 28.5448 38.1854V37.9901H34.3329C39.1752 37.9901 40.1578 37.9704 40.3465 37.8692C40.4706 37.8027 40.7777 37.6857 41.0288 37.6091C41.7815 37.3796 43.2469 36.0789 43.2501 35.6371C43.2506 35.5989 43.3019 35.4695 43.3646 35.3494C44.4201 33.3266 43.0272 30.6117 40.5562 29.8765C40.1748 29.7628 39.2025 29.7452 33.3545 29.7452H26.5936L26.4445 29.5172C26.2696 29.2503 26.2558 28.0303 26.4254 27.8259C26.5749 27.6459 40.4976 27.6453 40.8994 27.8253ZM13.1971 30.4252C13.1971 31.7108 13.209 32.2367 13.2234 31.5939C13.2379 30.9511 13.2379 29.8993 13.2234 29.2564C13.209 28.6136 13.1971 29.1396 13.1971 30.4252ZM40.7698 31.3969C42.4322 32.3118 42.7841 34.3611 41.4997 35.6452C41.187 35.958 40.7377 36.2902 40.6279 36.2902C40.5845 36.2902 40.4404 36.3467 40.3074 36.4155C40.0622 36.5428 27.9273 36.6185 27.4746 36.4956C27.2945 36.4467 27.0705 36.0343 26.9706 35.5677C26.9407 35.4274 26.8739 35.2019 26.8225 35.0666C26.6028 34.4881 26.3648 34.5086 33.3627 34.5069C40.4821 34.5051 40.1047 34.5419 40.1047 33.8494C40.1047 33.0931 40.6547 33.1513 33.2667 33.1254C25.7065 33.0991 26.4798 33.2174 26.4323 32.0778C26.3869 30.9875 25.5735 31.0978 33.4656 31.1245L40.3172 31.1477L40.7698 31.3969ZM20.2687 50.0346C20.2313 50.0719 20.1752 50.1059 20.1441 50.1102C19.489 50.199 19.1949 50.2659 19.1949 50.3261C19.1949 50.3666 19.1313 50.4 19.054 50.4C18.9233 50.4 17.6755 50.9791 17.5799 51.0841C17.5565 51.1098 17.4036 51.2205 17.2399 51.3304C14.552 53.1332 13.5418 57.3232 15.1279 60.09C15.168 60.1601 15.2269 60.2748 15.2583 60.345C15.6364 61.1843 17.8289 63.2237 18.3687 63.2377C18.4257 63.2391 18.5466 63.2965 18.6373 63.3652C18.7283 63.4338 18.8813 63.4912 18.9773 63.4927C19.0736 63.4941 19.2266 63.5515 19.3173 63.6202C19.4082 63.6888 19.6041 63.7449 19.7529 63.7449C19.9016 63.7449 20.1862 63.8023 20.3849 63.8724C20.8008 64.0191 22.2574 64.0484 22.3932 63.9126C22.441 63.8647 22.6877 63.804 22.9414 63.7781C23.195 63.7519 23.5267 63.6765 23.6786 63.6102C24.0296 63.4574 24.4703 63.267 24.6348 63.1973C24.8688 63.0981 25.4869 62.6979 25.8242 62.4274C26.2734 62.067 27.1848 61.0889 27.1848 60.9672C27.1848 60.9361 27.2375 60.8505 27.3019 60.7765C28.9298 58.9114 28.8155 54.964 27.0684 52.7139C26.2409 51.6481 24.5526 50.4022 23.9336 50.4004C23.8518 50.4002 23.7849 50.369 23.7849 50.3312C23.7849 50.127 20.4569 49.8462 20.2687 50.0346ZM5.18487 50.4268L5 50.6236V56.9284V63.2334L5.26754 63.4893L5.53528 63.7449H9.55723H13.579L13.8369 63.4927C14.1684 63.1688 14.1714 62.8733 13.8465 62.5483L13.5981 62.2999H10.0738H6.54954L6.4146 62.094C6.29539 61.9119 6.2769 61.2256 6.25608 56.1902C6.23292 50.606 6.22909 50.4897 6.06249 50.3639C5.80473 50.169 5.3995 50.1982 5.18487 50.4268ZM30.5068 50.5163C30.334 50.7957 30.3298 50.8981 30.3313 54.745C30.333 59.1819 30.4464 60.3834 30.929 61.0674C30.9619 61.1142 31.0175 61.2451 31.0523 61.3584C31.1324 61.6189 31.1872 61.6877 31.8608 62.3737C32.4165 62.9393 32.5958 63.0824 32.9352 63.2298C33.036 63.2736 33.1433 63.3501 33.1741 63.3996C33.2047 63.4493 33.3258 63.4899 33.4433 63.4899C33.5608 63.4899 33.7142 63.5473 33.7844 63.6174C33.8545 63.6875 34.0526 63.7466 34.2247 63.7487C34.3966 63.7507 34.6902 63.8076 34.8772 63.875C35.3409 64.042 36.8235 64.0405 37.2998 63.8724C37.4984 63.8023 37.8093 63.7449 37.9904 63.7449C38.1716 63.7449 38.3197 63.7084 38.3197 63.6639C38.3197 63.6193 38.4508 63.5467 38.6112 63.5024C39.5543 63.2419 40.8282 61.9561 41.2371 60.8518C41.6708 59.6802 41.6608 59.8071 41.6955 55.1131C41.7325 50.0845 41.7513 50.23 41.0648 50.23C40.3616 50.23 40.3669 50.192 40.3384 55.5C40.314 60.0801 40.3501 59.7091 39.8284 60.7404C39.6221 61.148 39.0713 61.7899 38.9277 61.7899C38.8737 61.7899 38.8297 61.8243 38.8297 61.8666C38.8297 61.9087 38.7245 61.9848 38.596 62.0354C38.4674 62.086 38.3049 62.1612 38.2347 62.2024C37.654 62.5434 35.0233 62.7039 34.4774 62.4315C34.3322 62.359 34.1399 62.2999 34.0498 62.2999C33.574 62.2999 32.4694 61.3135 32.1388 60.5934C31.6821 59.5988 31.6889 59.6809 31.6893 55.085C31.6897 50.1713 31.698 50.23 31.0098 50.23C30.7312 50.23 30.6579 50.2717 30.5068 50.5163ZM48.8596 50.3839C48.7895 50.4629 48.6609 50.6805 48.574 50.8675C48.4871 51.0545 48.3817 51.2649 48.3396 51.335C48.2978 51.4051 48.2417 51.5199 48.2147 51.59C48.1879 51.6601 48.0925 51.8748 48.0028 52.0669C47.913 52.259 47.8397 52.4598 47.8397 52.5131C47.8397 52.5664 47.8014 52.61 47.7547 52.61C47.7079 52.61 47.6697 52.6508 47.6697 52.7005C47.6697 52.7932 47.4841 53.2152 46.8872 54.48C46.6998 54.8774 46.4406 55.432 46.3111 55.7125C46.1819 55.993 45.8968 56.605 45.6772 57.0725C45.458 57.54 45.2255 58.0372 45.1607 58.1774C45.0959 58.3177 44.8655 58.8149 44.6486 59.2825C44.2597 60.1214 44.145 60.3698 43.4911 61.7899C43.3081 62.1873 43.1024 62.6208 43.034 62.753C42.5875 63.6172 43.3723 64.0191 44.1139 63.3059C44.5423 62.8938 45.6065 62.0796 46.0971 61.7882C46.2841 61.6773 46.4563 61.563 46.4797 61.5343C46.5663 61.428 47.741 60.8715 47.9971 60.8152C48.1433 60.7831 48.2846 60.7215 48.3112 60.6784C48.338 60.6352 48.4924 60.6 48.6548 60.6C48.8173 60.6 49.0874 60.5426 49.2553 60.4725C49.4854 60.3762 49.9117 60.345 50.992 60.345C52.9836 60.345 52.8746 60.2807 53.595 61.8749C53.6689 62.0385 53.7624 62.2298 53.8025 62.2999C53.8427 62.37 53.8992 62.4848 53.9279 62.5549C54.389 63.6814 54.843 63.9904 55.2777 63.4736C55.5727 63.1231 55.5327 62.845 55.0342 61.7774C54.83 61.3401 54.5775 60.7912 54.4734 60.5575C54.2983 60.1649 54.0996 59.7274 53.7018 58.8574C53.6162 58.6704 53.3954 58.1923 53.2109 57.7949C53.0265 57.3976 52.7723 56.843 52.6464 56.5625C52.5201 56.282 52.2997 55.8039 52.1563 55.5C51.7231 54.581 51.4328 53.9455 51.2827 53.5875C51.1098 53.1742 50.6499 52.1907 50.5477 52.015C50.5069 51.9449 50.4523 51.8301 50.4262 51.76C50.2389 51.256 49.8918 50.5706 49.7264 50.3788C49.5609 50.1867 49.0318 50.1897 48.8596 50.3839ZM57.6677 50.3884C57.3727 50.7141 57.3562 51.0756 57.3647 56.945C57.3738 63.311 57.3638 63.114 57.6957 63.4854C57.9886 63.8135 58.1972 63.8131 58.5124 63.4844L58.762 63.2237V56.9182C58.762 50.7634 58.758 50.6078 58.5944 50.4213C58.3808 50.1775 57.8747 50.1595 57.6677 50.3884ZM39.5446 52.3125C39.5444 53.1072 39.5571 53.4438 39.5728 53.0605C39.5885 52.6769 39.5887 52.0267 39.5731 51.6155C39.5575 51.2041 39.5446 51.5178 39.5446 52.3125ZM23.1474 51.4757C23.2409 51.5295 23.5609 51.6631 23.8584 51.773C24.1561 51.8826 24.4183 52.0203 24.4413 52.0788C24.4642 52.1372 24.5211 52.185 24.5679 52.185C24.8509 52.185 26.1506 53.4768 26.3637 53.97C26.3939 54.0401 26.4513 54.1548 26.491 54.225C26.7405 54.6649 26.9917 55.2913 27.0533 55.6275C27.2122 56.4951 27.1493 58.0338 26.9298 58.6449C26.7815 59.058 26.3214 60.005 26.2124 60.1214C26.1629 60.1743 25.9769 60.3985 25.7991 60.6197C25.4797 61.0171 24.5537 61.7899 24.3966 61.7899C24.3522 61.7899 24.2681 61.8473 24.2098 61.9174C24.1516 61.9875 24.0369 62.0449 23.9548 62.0449C23.8728 62.0449 23.7581 62.1023 23.6999 62.1724C23.6416 62.2425 23.5075 62.2999 23.4017 62.2999C23.2959 62.2999 23.0998 62.3571 22.9659 62.427C22.6178 62.6085 20.2366 62.611 19.9973 62.4302C19.9065 62.3615 19.747 62.3042 19.6424 62.3027C18.4939 62.2863 16.263 60.0411 15.8678 58.5039C15.8278 58.3477 15.7566 58.0765 15.7099 57.9012C15.5918 57.4581 15.6232 56.1876 15.762 55.7888C15.8255 55.6064 15.878 55.4058 15.8786 55.3427C15.8818 55.0605 16.439 53.9685 16.7713 53.5938C16.9122 53.4349 17.1485 53.1676 17.2964 52.9999C17.4443 52.8323 17.6069 52.695 17.6577 52.695C17.7085 52.695 17.7499 52.6599 17.7499 52.6172C17.7499 52.4766 19.1388 51.675 19.3825 51.675C19.4288 51.675 19.5871 51.6202 19.7346 51.5532C20.1649 51.3577 20.2754 51.3467 21.6598 51.3628C22.4686 51.3722 23.043 51.4158 23.1474 51.4757ZM32.394 51.7175C32.3946 51.9513 32.4112 52.0369 32.4308 51.9077C32.4503 51.7783 32.4499 51.587 32.4297 51.4827C32.4095 51.3781 32.3934 51.4838 32.394 51.7175ZM49.6259 53.205C50.241 54.4914 50.5596 55.2123 50.5596 55.3183C50.5596 55.3635 50.5983 55.4137 50.6455 55.4294C50.6926 55.4451 50.7469 55.5344 50.766 55.6277C50.7974 55.7818 51.0547 56.3708 51.2298 56.69C51.2683 56.7601 51.3594 56.9513 51.4324 57.115C51.5052 57.2786 51.6829 57.6706 51.8272 57.9865C52.3127 59.0483 52.2285 59.1545 50.9038 59.1558C50.2804 59.1564 49.7698 59.203 49.5048 59.2833C49.2753 59.353 48.9629 59.41 48.8106 59.41C48.6582 59.41 48.4251 59.4635 48.2927 59.5292C48.1605 59.5946 47.8418 59.7151 47.5847 59.7967C47.3275 59.8783 47.0407 59.986 46.9472 60.0362C45.989 60.5502 45.5442 60.3632 45.9214 59.6055C46.0332 59.381 46.2809 58.8627 46.4722 58.4537C47.1459 57.0121 47.5234 56.2117 48.026 55.16C48.3052 54.5756 48.6125 53.9253 48.709 53.715C49.0114 53.055 49.4402 52.8166 49.6259 53.205ZM32.3953 58.0499C32.3953 58.3071 32.4112 58.4122 32.4308 58.2837C32.4501 58.1551 32.4501 57.9448 32.4308 57.8162C32.4112 57.6876 32.3953 57.7928 32.3953 58.0499ZM39.5312 58.4324C39.532 58.6194 39.5494 58.686 39.5699 58.5801C39.5903 58.4745 39.5894 58.3215 39.5681 58.2401C39.5469 58.159 39.5301 58.2454 39.5312 58.4324Z" fill="white"/>
</svg>
