<svg width="64" height="64" viewBox="0 0 64 64" fill="none" xmlns="http://www.w3.org/2000/svg">
<g clip-path="url(#clip0_98_34)">
<path d="M52.9956 39.6704C59.0756 39.6704 64 45.1172 64 51.8372C64 58.5533 59.0756 64 52.9956 64C46.9192 64 41.9912 58.5533 41.9912 51.8372C41.9912 45.1172 46.9192 39.6704 52.9956 39.6704ZM25.8665 46.6486C28.5296 46.6486 30.6914 49.038 30.6914 51.9814C30.6914 54.9209 28.5296 57.3142 25.8665 57.3142H4.82486C2.16177 57.3142 0 54.9209 0 51.9814C0 49.038 2.16177 46.6486 4.82486 46.6486H25.8665ZM11.0044 0C17.0843 0 22.0088 5.44674 22.0088 12.1628C22.0088 18.8828 17.0843 24.3296 11.0044 24.3296C4.92797 24.3296 0 18.8828 0 12.1628C0 5.44674 4.92797 0 11.0044 0ZM59.1787 6.83397C61.8382 6.83397 64 9.22331 64 12.1628C64 15.1063 61.8382 17.4956 59.1787 17.4956H38.137C35.4739 17.4956 33.3122 15.1063 33.3122 12.1628C33.3122 9.22331 35.4739 6.83397 38.137 6.83397H59.1787Z" fill="white"/>
</g>
<defs>
<clipPath id="clip0_98_34">
<rect width="64" height="64" fill="white"/>
</clipPath>
</defs>
</svg>
