<svg width="64" height="64" viewBox="0 0 64 64" fill="none" xmlns="http://www.w3.org/2000/svg">
<g clip-path="url(#clip0_88_5559)">
<path d="M50 36C48.8955 36 48 36.8955 48 38V56C48 58.2092 46.2092 60 44 60H8C5.791 60 4 58.2092 4 56V20C4 17.7908 5.791 16 8 16H22C23.1048 16 24 15.1045 24 14C24 12.8955 23.1048 12 22 12H8C3.58175 12 0 15.5817 0 20V56C0 60.4183 3.58175 64 8 64H44C48.4185 64 52 60.4183 52 56V38C52 36.8955 51.1048 36 50 36ZM62 0H42C40.8945 0 40 0.8945 40 2C40 3.1055 40.8945 4 42 4H57.1719L22.586 38.586C21.8048 39.3672 21.8048 40.6329 22.586 41.414C22.9765 41.8048 23.4883 42 24 42C24.5117 42 25.0235 41.8048 25.414 41.414L60 6.82812V22C60 23.1055 60.8945 24 62 24C63.1055 24 64 23.1055 64 22V2C64 0.8945 63.1055 0 62 0Z" fill="#65FF7E"/>
</g>
<defs>
<clipPath id="clip0_88_5559">
<rect width="64" height="64" fill="white"/>
</clipPath>
</defs>
</svg>
