<svg width="1280" height="1280" viewBox="0 0 1280 1280" fill="none" xmlns="http://www.w3.org/2000/svg">
<path d="M1256 640.5C1256 980.431 980.431 1256 640.5 1256C300.569 1256 25 980.431 25 640.5C25 300.569 300.569 25 640.5 25C980.431 25 1256 300.569 1256 640.5ZM30.0179 640.5C30.0179 977.66 303.34 1250.98 640.5 1250.98C977.66 1250.98 1250.98 977.66 1250.98 640.5C1250.98 303.34 977.66 30.0179 640.5 30.0179C303.34 30.0179 30.0179 303.34 30.0179 640.5Z" fill="#243038"/>
<circle cx="169" cy="1032" r="24" fill="#243038"/>
<path d="M162.932 1026.36C162.275 1025.67 161.168 1025.63 160.459 1026.27L155.559 1030.74C155.202 1031.07 155 1031.52 155 1032C155 1032.48 155.202 1032.93 155.559 1033.26L160.459 1037.73C160.796 1038.04 161.223 1038.19 161.649 1038.19C162.119 1038.19 162.588 1038 162.932 1037.64C163.59 1036.94 163.549 1035.86 162.841 1035.21L159.322 1032L162.841 1028.79C163.549 1028.14 163.59 1027.06 162.932 1026.36ZM182.441 1030.74L177.541 1026.27C176.833 1025.63 175.725 1025.67 175.068 1026.36C174.41 1027.06 174.451 1028.14 175.159 1028.79L178.678 1032L175.159 1035.21C174.451 1035.86 174.41 1036.94 175.068 1037.64C175.412 1038 175.881 1038.19 176.351 1038.19C176.777 1038.19 177.204 1038.04 177.541 1037.73L182.441 1033.26C182.798 1032.93 183 1032.48 183 1032C183 1031.52 182.798 1031.07 182.441 1030.74ZM171.889 1021.06C170.958 1020.82 169.999 1021.37 169.756 1022.29L164.856 1040.85C164.613 1041.77 165.175 1042.71 166.111 1042.94C166.258 1042.98 166.406 1043 166.551 1043C167.329 1043 168.04 1042.49 168.244 1041.71L173.144 1023.15C173.387 1022.23 172.825 1021.29 171.889 1021.06Z" fill="#589B63"/>
<circle cx="973" cy="1163" r="28" fill="#243038"/>
<path d="M972.994 1178.25C972.574 1178.25 972.148 1178.14 971.778 1177.92L967.911 1175.63C967.335 1175.31 967.617 1175.2 967.805 1175.13C968.576 1174.86 968.732 1174.81 969.553 1174.34C969.641 1174.29 969.754 1174.31 969.842 1174.36L972.812 1176.12C972.919 1176.19 973.069 1176.19 973.169 1176.12L984.744 1169.44C984.85 1169.38 984.919 1169.26 984.919 1169.13V1155.77C984.919 1155.64 984.85 1155.52 984.738 1155.45L973.169 1148.78C973.063 1148.71 972.919 1148.71 972.812 1148.78L961.25 1155.46C961.137 1155.52 961.068 1155.64 961.068 1155.78V1169.13C961.068 1169.26 961.137 1169.38 961.25 1169.44L964.421 1171.27C966.144 1172.13 967.197 1171.12 967.197 1170.1V1156.91C967.197 1156.72 967.347 1156.58 967.535 1156.58H969.002C969.184 1156.58 969.34 1156.72 969.34 1156.91V1170.1C969.34 1172.39 968.087 1173.71 965.912 1173.71C965.242 1173.71 964.715 1173.71 963.249 1172.98L960.216 1171.24C959.464 1170.8 959 1169.99 959 1169.12V1155.77C959 1154.9 959.464 1154.09 960.216 1153.66L971.778 1146.98C972.511 1146.56 973.483 1146.56 974.209 1146.98L985.784 1153.66C986.536 1154.1 987 1154.9 987 1155.78V1169.13C987 1169.99 986.536 1170.8 985.784 1171.24L974.209 1177.92C973.84 1178.14 973.42 1178.25 972.994 1178.25ZM982.338 1165.08C982.338 1162.58 980.645 1161.92 977.092 1161.45C973.495 1160.97 973.132 1160.73 973.132 1159.89C973.132 1159.19 973.439 1158.26 976.102 1158.26C978.477 1158.26 979.355 1158.78 979.718 1160.38C979.749 1160.53 979.887 1160.64 980.044 1160.64H981.548C981.642 1160.64 981.73 1160.61 981.792 1160.54C981.855 1160.47 981.886 1160.38 981.88 1160.28C981.648 1157.52 979.812 1156.23 976.102 1156.23C972.799 1156.23 970.832 1157.62 970.832 1159.96C970.832 1162.49 972.793 1163.2 975.958 1163.51C979.749 1163.88 980.044 1164.44 980.044 1165.18C980.044 1166.47 979.004 1167.02 976.566 1167.02C973.501 1167.02 972.831 1166.25 972.605 1164.73C972.58 1164.57 972.442 1164.45 972.273 1164.45H970.775C970.587 1164.45 970.443 1164.6 970.443 1164.78C970.443 1166.73 971.502 1169.05 976.572 1169.05C980.232 1169.05 982.338 1167.6 982.338 1165.08Z" fill="#589B63"/>
<circle cx="1053" cy="184" r="30" fill="#243038"/>
<path d="M1053.03 196.322C1052.9 196.322 1052.76 196.284 1052.64 196.221L1051.43 195.499C1051.24 195.398 1051.33 195.36 1051.4 195.341C1051.64 195.259 1051.69 195.24 1051.95 195.088C1051.97 195.075 1052.01 195.081 1052.04 195.094L1052.97 195.651C1053 195.67 1053.05 195.67 1053.09 195.651L1056.75 193.536C1056.78 193.517 1056.8 193.479 1056.8 193.435V189.211C1056.8 189.167 1056.78 189.129 1056.75 189.11L1053.09 187.001C1053.05 186.982 1053.01 186.982 1052.97 187.001L1049.31 189.11C1049.27 189.129 1049.26 189.173 1049.26 189.211V193.435C1049.26 193.473 1049.28 193.511 1049.31 193.53L1050.31 194.106C1050.86 194.378 1051.19 194.055 1051.19 193.739V189.566C1051.19 189.509 1051.24 189.458 1051.3 189.458H1051.76C1051.82 189.458 1051.87 189.502 1051.87 189.566V193.739C1051.87 194.467 1051.48 194.879 1050.79 194.879C1050.58 194.879 1050.41 194.879 1049.95 194.651L1048.98 194.1C1048.75 193.96 1048.6 193.707 1048.6 193.435V189.211C1048.6 188.939 1048.74 188.679 1048.98 188.546L1052.64 186.431C1052.88 186.298 1053.18 186.298 1053.41 186.431L1057.07 188.546C1057.3 188.685 1057.46 188.939 1057.46 189.211V193.435C1057.46 193.707 1057.31 193.967 1057.07 194.1L1053.41 196.215C1053.3 196.284 1053.17 196.322 1053.03 196.322ZM1055.99 192.156C1055.99 191.364 1055.45 191.155 1054.33 191.003C1053.19 190.851 1053.07 190.775 1053.07 190.509C1053.07 190.288 1053.17 189.996 1054.01 189.996C1054.76 189.996 1055.04 190.161 1055.16 190.668C1055.17 190.718 1055.21 190.75 1055.26 190.75H1055.73C1055.77 190.75 1055.79 190.737 1055.81 190.718C1055.83 190.693 1055.84 190.668 1055.83 190.636C1055.76 189.762 1055.18 189.357 1054.01 189.357C1052.97 189.357 1052.35 189.8 1052.35 190.535C1052.35 191.339 1052.97 191.554 1053.97 191.655C1055.16 191.776 1055.26 191.947 1055.26 192.181C1055.26 192.593 1054.93 192.764 1054.16 192.764C1053.19 192.764 1052.97 192.523 1052.9 192.042C1052.9 191.991 1052.85 191.953 1052.8 191.953H1052.32C1052.26 191.953 1052.21 191.997 1052.21 192.061C1052.21 192.675 1052.55 193.409 1054.15 193.409C1055.32 193.409 1055.99 192.954 1055.99 192.156ZM1059.44 188.983C1059.44 189.369 1059.12 189.686 1058.74 189.686C1058.35 189.686 1058.03 189.369 1058.03 188.983C1058.03 188.584 1058.36 188.28 1058.74 188.28C1059.12 188.274 1059.44 188.584 1059.44 188.983ZM1059.32 188.983C1059.32 188.654 1059.06 188.394 1058.73 188.394C1058.41 188.394 1058.14 188.654 1058.14 188.983C1058.14 189.312 1058.41 189.578 1058.73 189.578C1059.06 189.572 1059.32 189.306 1059.32 188.983ZM1059.04 189.376H1058.87C1058.87 189.338 1058.84 189.135 1058.84 189.129C1058.83 189.084 1058.82 189.059 1058.76 189.059H1058.62V189.376H1058.47V188.584H1058.74C1058.84 188.584 1059.02 188.584 1059.02 188.793C1059.02 188.939 1058.93 188.97 1058.87 188.989C1058.98 188.996 1058.98 189.065 1059 189.167C1059.01 189.23 1059.02 189.338 1059.04 189.376ZM1058.86 188.818C1058.86 188.711 1058.79 188.711 1058.75 188.711H1058.62V188.932H1058.74C1058.84 188.932 1058.86 188.863 1058.86 188.818ZM1041.69 179.795C1041.69 179.624 1041.61 179.472 1041.46 179.389L1037.58 177.154C1037.52 177.116 1037.44 177.097 1037.36 177.091H1037.33C1037.25 177.091 1037.18 177.116 1037.11 177.154L1033.23 179.389C1033.09 179.472 1033 179.63 1033 179.795L1033.01 185.81C1033.01 185.893 1033.05 185.969 1033.12 186.013C1033.19 186.057 1033.28 186.057 1033.35 186.013L1035.66 184.69C1035.81 184.601 1035.89 184.449 1035.89 184.284V181.473C1035.89 181.308 1035.98 181.15 1036.13 181.067L1037.11 180.504C1037.19 180.46 1037.26 180.441 1037.34 180.441C1037.43 180.441 1037.51 180.46 1037.58 180.504L1038.56 181.067C1038.71 181.15 1038.79 181.308 1038.79 181.473V184.284C1038.79 184.449 1038.88 184.607 1039.03 184.69L1041.33 186.013C1041.4 186.057 1041.5 186.057 1041.57 186.013C1041.64 185.975 1041.68 185.893 1041.68 185.81L1041.69 179.795ZM1062.92 173.228V184.398C1062.92 184.563 1062.83 184.721 1062.69 184.804L1058.8 187.045C1058.66 187.128 1058.48 187.128 1058.34 187.045L1054.45 184.804C1054.31 184.721 1054.22 184.563 1054.22 184.398V179.915C1054.22 179.75 1054.31 179.592 1054.45 179.51L1058.34 177.268C1058.48 177.186 1058.66 177.186 1058.8 177.268L1059.77 177.825C1059.88 177.889 1060.02 177.806 1060.02 177.686V171.733C1060.02 171.556 1060.21 171.442 1060.37 171.531L1062.68 172.823C1062.83 172.899 1062.92 173.057 1062.92 173.228ZM1060.01 181.39C1060.01 181.346 1059.98 181.308 1059.95 181.289L1058.62 180.517C1058.58 180.498 1058.54 180.498 1058.5 180.517L1057.17 181.289C1057.13 181.308 1057.11 181.346 1057.11 181.39V182.929C1057.11 182.974 1057.14 183.012 1057.17 183.031L1058.5 183.797C1058.54 183.816 1058.58 183.816 1058.61 183.797L1059.94 183.031C1059.98 183.012 1060 182.974 1060 182.929V181.39H1060.01ZM1073.29 181.346C1073.44 181.264 1073.53 181.105 1073.53 180.941V179.858C1073.53 179.693 1073.44 179.535 1073.29 179.453L1069.44 177.211C1069.29 177.129 1069.11 177.129 1068.97 177.211L1065.09 179.453C1064.94 179.535 1064.85 179.693 1064.85 179.858V184.341C1064.85 184.512 1064.94 184.664 1065.09 184.747L1068.94 186.944C1069.08 187.026 1069.26 187.026 1069.41 186.944L1071.74 185.646C1071.89 185.557 1071.89 185.329 1071.74 185.241L1067.83 182.999C1067.75 182.955 1067.71 182.879 1067.71 182.796V181.39C1067.71 181.308 1067.75 181.232 1067.83 181.188L1069.04 180.485C1069.11 180.441 1069.21 180.441 1069.28 180.485L1070.49 181.188C1070.56 181.232 1070.61 181.308 1070.61 181.39V182.492C1070.61 182.67 1070.81 182.784 1070.97 182.695L1073.29 181.346ZM1068.4 181.568C1068.37 181.587 1068.35 181.612 1068.35 181.644V182.505C1068.35 182.537 1068.37 182.568 1068.4 182.581L1069.15 183.012C1069.17 183.031 1069.21 183.031 1069.23 183.012L1069.98 182.581C1070.01 182.562 1070.03 182.537 1070.03 182.505V181.644C1070.03 181.612 1070.01 181.58 1069.98 181.568L1069.23 181.137C1069.21 181.118 1069.17 181.118 1069.15 181.137L1068.4 181.568ZM1052.3 184.322V179.864C1052.3 179.7 1052.2 179.541 1052.05 179.459L1048.19 177.23C1048.05 177.154 1047.87 177.141 1047.72 177.23L1043.85 179.459C1043.7 179.541 1043.6 179.693 1043.6 179.864V184.322C1043.6 184.5 1043.72 184.652 1043.85 184.728L1047.73 186.957C1047.88 187.045 1048.06 187.039 1048.2 186.957L1052.06 184.728C1052.17 184.664 1052.26 184.557 1052.29 184.43C1052.3 184.398 1052.3 184.36 1052.3 184.322ZM1047.6 176.413L1047.55 176.445H1047.62L1047.6 176.413ZM1052.42 184.658L1052.4 184.614V184.671L1052.42 184.658Z" fill="#589B63"/>
<circle cx="177" cy="238" r="31" fill="#243038"/>
<path d="M162 222L164.817 253.805L177.46 258L190.183 253.805L193 222H162ZM186.881 232.278H172.043L172.374 236.247H186.55L185.452 248.172L177.548 250.342V250.366H177.46L169.492 248.172L169.007 242.081H172.858L173.141 245.143L177.46 246.308L181.795 245.143L182.279 240.145H168.805L167.772 228.445H187.236L186.881 232.278Z" fill="#589B63"/>
</svg>
