<svg width="1280" height="1280" viewBox="0 0 1280 1280" fill="none" xmlns="http://www.w3.org/2000/svg">
<path d="M1061 639.5C1061 875.049 870.049 1066 634.5 1066C398.951 1066 208 875.049 208 639.5C208 403.951 398.951 213 634.5 213C870.049 213 1061 403.951 1061 639.5ZM211.477 639.5C211.477 873.129 400.871 1062.52 634.5 1062.52C868.129 1062.52 1057.52 873.129 1057.52 639.5C1057.52 405.871 868.129 216.477 634.5 216.477C400.871 216.477 211.477 405.871 211.477 639.5Z" fill="#243038"/>
<circle cx="634" cy="1066" r="24" fill="#243038"/>
<path d="M634.024 1075.86C633.917 1075.86 633.811 1075.83 633.715 1075.78L632.742 1075.2C632.595 1075.12 632.666 1075.09 632.717 1075.07C632.909 1075.01 632.95 1074.99 633.157 1074.87C633.178 1074.86 633.208 1074.87 633.228 1074.88L633.978 1075.32C634.003 1075.34 634.044 1075.34 634.069 1075.32L636.997 1073.63C637.023 1073.61 637.043 1073.58 637.043 1073.55V1070.17C637.043 1070.13 637.028 1070.1 636.997 1070.09L634.069 1068.4C634.044 1068.39 634.009 1068.39 633.978 1068.4L631.05 1070.09C631.02 1070.1 631.004 1070.14 631.004 1070.17V1073.55C631.004 1073.58 631.025 1073.61 631.05 1073.62L631.85 1074.08C632.286 1074.3 632.555 1074.04 632.555 1073.79V1070.45C632.555 1070.41 632.59 1070.37 632.641 1070.37H633.011C633.056 1070.37 633.097 1070.4 633.097 1070.45V1073.79C633.097 1074.37 632.783 1074.7 632.23 1074.7C632.063 1074.7 631.926 1074.7 631.557 1074.52L630.787 1074.08C630.599 1073.97 630.478 1073.77 630.478 1073.55V1070.17C630.478 1069.95 630.594 1069.74 630.787 1069.64L633.715 1067.94C633.902 1067.84 634.145 1067.84 634.328 1067.94L637.256 1069.64C637.443 1069.75 637.565 1069.95 637.565 1070.17V1073.55C637.565 1073.77 637.448 1073.97 637.256 1074.08L634.328 1075.77C634.242 1075.83 634.135 1075.86 634.024 1075.86ZM636.39 1072.52C636.39 1071.89 635.964 1071.72 635.062 1071.6C634.15 1071.48 634.059 1071.42 634.059 1071.21C634.059 1071.03 634.135 1070.8 634.809 1070.8C635.412 1070.8 635.635 1070.93 635.726 1071.33C635.736 1071.37 635.766 1071.4 635.807 1071.4H636.187C636.212 1071.4 636.232 1071.39 636.248 1071.37C636.263 1071.35 636.273 1071.33 636.268 1071.31C636.207 1070.61 635.746 1070.29 634.809 1070.29C633.973 1070.29 633.477 1070.64 633.477 1071.23C633.477 1071.87 633.973 1072.04 634.773 1072.12C635.731 1072.22 635.807 1072.36 635.807 1072.54C635.807 1072.87 635.544 1073.01 634.925 1073.01C634.15 1073.01 633.978 1072.82 633.922 1072.43C633.917 1072.39 633.882 1072.36 633.836 1072.36H633.456C633.411 1072.36 633.37 1072.4 633.37 1072.45C633.37 1072.94 633.639 1073.53 634.92 1073.53C635.858 1073.53 636.39 1073.16 636.39 1072.52ZM639.15 1069.99C639.15 1070.3 638.897 1070.55 638.588 1070.55C638.279 1070.55 638.026 1070.3 638.026 1069.99C638.026 1069.67 638.289 1069.42 638.588 1069.42C638.892 1069.42 639.15 1069.67 639.15 1069.99ZM639.059 1069.99C639.059 1069.72 638.847 1069.52 638.583 1069.52C638.325 1069.52 638.112 1069.72 638.112 1069.99C638.112 1070.25 638.325 1070.46 638.583 1070.46C638.847 1070.46 639.059 1070.24 639.059 1069.99ZM638.831 1070.3H638.7C638.695 1070.27 638.674 1070.11 638.674 1070.1C638.664 1070.07 638.654 1070.05 638.608 1070.05H638.497V1070.3H638.375V1069.67H638.593C638.669 1069.67 638.816 1069.67 638.816 1069.83C638.816 1069.95 638.74 1069.98 638.695 1069.99C638.781 1070 638.786 1070.05 638.801 1070.13C638.806 1070.18 638.816 1070.27 638.831 1070.3ZM638.689 1069.85C638.689 1069.77 638.629 1069.77 638.598 1069.77H638.497V1069.95H638.593C638.674 1069.95 638.689 1069.89 638.689 1069.85ZM624.956 1062.64C624.956 1062.5 624.885 1062.38 624.768 1062.31L621.663 1060.52C621.612 1060.49 621.551 1060.48 621.49 1060.47H621.46C621.399 1060.47 621.344 1060.49 621.288 1060.52L618.187 1062.31C618.071 1062.38 618 1062.5 618 1062.64L618.005 1067.45C618.005 1067.51 618.041 1067.58 618.096 1067.61C618.152 1067.65 618.223 1067.65 618.284 1067.61L620.128 1066.55C620.244 1066.48 620.315 1066.36 620.315 1066.23V1063.98C620.315 1063.85 620.386 1063.72 620.503 1063.65L621.288 1063.2C621.349 1063.17 621.409 1063.15 621.475 1063.15C621.541 1063.15 621.607 1063.17 621.663 1063.2L622.448 1063.65C622.564 1063.72 622.635 1063.85 622.635 1063.98V1066.23C622.635 1066.36 622.706 1066.49 622.823 1066.55L624.667 1067.61C624.723 1067.65 624.799 1067.65 624.854 1067.61C624.91 1067.58 624.945 1067.51 624.945 1067.45L624.956 1062.64ZM641.937 1057.38V1066.32C641.937 1066.45 641.866 1066.58 641.749 1066.64L638.644 1068.44C638.527 1068.5 638.386 1068.5 638.269 1068.44L635.164 1066.64C635.047 1066.58 634.976 1066.45 634.976 1066.32V1062.73C634.976 1062.6 635.047 1062.47 635.164 1062.41L638.269 1060.61C638.386 1060.55 638.527 1060.55 638.644 1060.61L639.419 1061.06C639.505 1061.11 639.617 1061.04 639.617 1060.95V1056.19C639.617 1056.04 639.769 1055.95 639.895 1056.02L641.744 1057.06C641.861 1057.12 641.937 1057.25 641.937 1057.38ZM639.606 1063.91C639.606 1063.88 639.586 1063.85 639.561 1063.83L638.497 1063.21C638.467 1063.2 638.431 1063.2 638.401 1063.21L637.337 1063.83C637.306 1063.85 637.291 1063.88 637.291 1063.91V1065.14C637.291 1065.18 637.312 1065.21 637.337 1065.22L638.401 1065.84C638.431 1065.85 638.467 1065.85 638.492 1065.84L639.556 1065.22C639.586 1065.21 639.601 1065.18 639.601 1065.14V1063.91H639.606ZM650.235 1063.88C650.351 1063.81 650.422 1063.68 650.422 1063.55V1062.69C650.422 1062.55 650.351 1062.43 650.235 1062.36L647.15 1060.57C647.033 1060.5 646.891 1060.5 646.775 1060.57L643.669 1062.36C643.553 1062.43 643.482 1062.55 643.482 1062.69V1066.27C643.482 1066.41 643.553 1066.53 643.669 1066.6L646.755 1068.36C646.866 1068.42 647.008 1068.42 647.124 1068.36L648.989 1067.32C649.115 1067.25 649.115 1067.06 648.989 1066.99L645.863 1065.2C645.802 1065.16 645.767 1065.1 645.767 1065.04V1063.91C645.767 1063.85 645.802 1063.79 645.863 1063.75L646.836 1063.19C646.891 1063.15 646.967 1063.15 647.023 1063.19L647.996 1063.75C648.051 1063.79 648.092 1063.85 648.092 1063.91V1064.79C648.092 1064.94 648.249 1065.03 648.376 1064.96L650.235 1063.88ZM646.319 1064.05C646.299 1064.07 646.283 1064.09 646.283 1064.11V1064.8C646.283 1064.83 646.299 1064.85 646.319 1064.86L646.917 1065.21C646.937 1065.22 646.967 1065.22 646.988 1065.21L647.585 1064.86C647.606 1064.85 647.621 1064.83 647.621 1064.8V1064.11C647.621 1064.09 647.606 1064.06 647.585 1064.05L646.988 1063.71C646.967 1063.69 646.937 1063.69 646.917 1063.71L646.319 1064.05ZM633.441 1066.26V1062.69C633.441 1062.56 633.36 1062.43 633.244 1062.37L630.148 1060.58C630.042 1060.52 629.895 1060.51 629.773 1060.58L626.678 1062.37C626.562 1062.43 626.48 1062.55 626.48 1062.69V1066.26C626.48 1066.4 626.577 1066.52 626.683 1066.58L629.783 1068.37C629.905 1068.44 630.047 1068.43 630.158 1068.37L633.249 1066.58C633.34 1066.53 633.406 1066.45 633.431 1066.34C633.436 1066.32 633.441 1066.29 633.441 1066.26ZM629.677 1059.93L629.637 1059.96H629.692L629.677 1059.93ZM633.537 1066.53L633.517 1066.49V1066.54L633.537 1066.53Z" fill="#589B63"/>
<circle cx="214" cy="698" r="27" fill="#243038"/>
<path d="M209.696 706.13C209.696 706.233 209.576 706.316 209.424 706.316C209.251 706.332 209.13 706.249 209.13 706.13C209.13 706.027 209.251 705.944 209.403 705.944C209.56 705.928 209.696 706.011 209.696 706.13ZM208.066 705.897C208.029 706.001 208.134 706.12 208.292 706.151C208.428 706.202 208.585 706.151 208.617 706.047C208.648 705.944 208.548 705.825 208.391 705.778C208.255 705.742 208.103 705.794 208.066 705.897ZM210.383 705.809C210.231 705.846 210.126 705.944 210.142 706.063C210.158 706.166 210.294 706.233 210.451 706.197C210.603 706.161 210.708 706.063 210.692 705.959C210.677 705.861 210.535 705.794 210.383 705.809ZM213.832 686C206.562 686 201 691.443 201 698.614C201 704.346 204.659 709.252 209.885 710.979C210.556 711.098 210.792 710.689 210.792 710.353C210.792 710.033 210.776 708.265 210.776 707.179C210.776 707.179 207.107 707.955 206.336 705.639C206.336 705.639 205.739 704.135 204.879 703.747C204.879 703.747 203.679 702.935 204.963 702.951C204.963 702.951 206.268 703.054 206.986 704.284C208.134 706.28 210.058 705.706 210.808 705.365C210.928 704.538 211.269 703.964 211.646 703.623C208.716 703.302 205.76 702.884 205.76 697.91C205.76 696.489 206.158 695.775 206.997 694.866C206.86 694.53 206.415 693.144 207.133 691.356C208.229 691.02 210.75 692.751 210.75 692.751C211.798 692.462 212.925 692.312 214.042 692.312C215.158 692.312 216.285 692.462 217.334 692.751C217.334 692.751 219.855 691.014 220.951 691.356C221.669 693.149 221.223 694.53 221.087 694.866C221.926 695.781 222.44 696.494 222.44 697.91C222.44 702.899 219.352 703.297 216.422 703.623C216.904 704.031 217.313 704.807 217.313 706.021C217.313 707.764 217.297 709.919 217.297 710.343C217.297 710.679 217.538 711.087 218.204 710.969C223.446 709.252 227 704.346 227 698.614C227 691.443 221.103 686 213.832 686ZM206.095 703.83C206.027 703.881 206.043 704 206.132 704.098C206.216 704.181 206.336 704.217 206.404 704.15C206.473 704.098 206.457 703.979 206.368 703.881C206.284 703.799 206.163 703.762 206.095 703.83ZM205.529 703.411C205.492 703.478 205.545 703.561 205.65 703.612C205.733 703.664 205.838 703.649 205.875 703.576C205.912 703.509 205.859 703.426 205.754 703.375C205.65 703.344 205.566 703.359 205.529 703.411ZM207.227 705.251C207.144 705.318 207.175 705.473 207.296 705.572C207.416 705.691 207.568 705.706 207.636 705.623C207.704 705.556 207.673 705.401 207.568 705.303C207.453 705.184 207.296 705.168 207.227 705.251ZM206.63 704.491C206.546 704.543 206.546 704.677 206.63 704.796C206.714 704.915 206.855 704.967 206.923 704.915C207.007 704.848 207.007 704.714 206.923 704.595C206.85 704.476 206.714 704.424 206.63 704.491Z" fill="#589B63"/>
<circle cx="600" cy="215" r="24" fill="#243038"/>
<path d="M606.198 218.778C606.847 218.333 607.748 217.948 607.748 217.948C607.748 217.948 605.185 218.413 602.635 218.626C599.516 218.884 596.165 218.938 594.483 218.712C590.502 218.181 596.668 216.713 596.668 216.713C596.668 216.713 594.277 216.554 591.33 217.975C587.853 219.661 599.94 220.432 606.198 218.778ZM600.543 216.647C599.284 213.811 595.039 211.321 600.543 206.965C607.408 201.533 603.887 198 603.887 198C605.311 203.611 598.88 205.311 596.556 208.798C594.973 211.181 597.33 213.738 600.543 216.647ZM608.132 204.946C608.139 204.946 596.529 207.855 602.072 214.256C603.708 216.142 601.642 217.842 601.642 217.842C601.642 217.842 605.794 215.69 603.887 213.001C602.106 210.491 600.741 209.242 608.132 204.946ZM607.728 222.909C607.692 222.972 607.648 223.03 607.596 223.081C616.093 220.843 612.967 215.186 608.907 216.62C608.688 216.701 608.498 216.847 608.364 217.038C608.601 216.952 608.845 216.886 609.093 216.839C611.146 216.408 614.093 219.595 607.728 222.909ZM610.852 227.046C610.852 227.046 611.812 227.836 609.799 228.454C605.964 229.616 593.851 229.968 590.486 228.5C589.275 227.975 591.546 227.238 592.261 227.086C593.003 226.926 593.434 226.953 593.434 226.953C592.089 226.003 584.738 228.819 589.698 229.622C603.225 231.827 614.362 228.633 610.852 227.046ZM596.046 224.297C590.834 225.757 599.218 228.772 605.854 225.923C605.207 225.671 604.582 225.365 603.986 225.007C601.026 225.572 599.655 225.611 596.966 225.306C594.748 225.054 596.046 224.297 596.046 224.297ZM607.953 230.751C602.741 231.734 596.311 231.621 592.502 230.99C592.502 230.984 593.284 231.634 597.297 231.893C603.404 232.285 612.781 231.674 613 228.779C613 228.779 612.576 229.875 607.953 230.751ZM605.066 221.441C601.145 222.198 598.874 222.178 596.006 221.879C593.787 221.647 595.238 220.571 595.238 220.571C589.489 222.484 598.43 224.648 606.463 222.291C605.944 222.107 605.468 221.818 605.066 221.441Z" fill="#589B63"/>
<circle cx="1061" cy="630" r="32" fill="#243038"/>
<path d="M1077.39 625.412C1076.83 623.135 1075.75 621.419 1073.46 621.419H1070.51V624.911C1070.51 627.621 1068.21 629.905 1065.59 629.905H1057.72C1055.57 629.905 1053.79 631.746 1053.79 633.904V641.403C1053.79 643.539 1055.64 644.791 1057.72 645.402C1060.21 646.132 1062.6 646.264 1065.59 645.402C1067.57 644.828 1069.52 643.671 1069.52 641.403V638.405H1061.66V637.403H1073.46C1075.75 637.403 1076.6 635.805 1077.39 633.411C1078.22 630.943 1078.18 628.571 1077.39 625.412ZM1066.08 640.401C1066.9 640.401 1067.56 641.071 1067.56 641.896C1067.56 642.729 1066.9 643.399 1066.08 643.399C1065.27 643.399 1064.6 642.721 1064.6 641.896C1064.61 641.064 1065.27 640.401 1066.08 640.401ZM1057.36 628.918H1065.23C1067.41 628.918 1069.16 627.113 1069.16 624.918V617.412C1069.16 615.276 1067.36 613.678 1065.23 613.317C1062.59 612.882 1059.72 612.904 1057.36 613.324C1054.03 613.913 1053.43 615.144 1053.43 617.42V620.417H1061.3V621.419H1050.47C1048.18 621.419 1046.18 622.797 1045.55 625.412C1044.83 628.409 1044.8 630.28 1045.55 633.411C1046.11 635.738 1047.45 637.403 1049.74 637.403H1052.44V633.809C1052.44 631.208 1054.69 628.918 1057.36 628.918ZM1056.87 618.414C1056.05 618.414 1055.39 617.744 1055.39 616.919C1055.39 616.086 1056.05 615.416 1056.87 615.416C1057.68 615.416 1058.35 616.094 1058.35 616.919C1058.35 617.744 1057.68 618.414 1056.87 618.414Z" fill="#589B63"/>
</svg>
