<svg width="1280" height="1280" viewBox="0 0 1280 1280" fill="none" xmlns="http://www.w3.org/2000/svg">
<path d="M843 638.5C843 747.024 755.024 835 646.5 835C537.976 835 450 747.024 450 638.5C450 529.976 537.976 442 646.5 442C755.024 442 843 529.976 843 638.5ZM451.602 638.5C451.602 746.139 538.861 833.398 646.5 833.398C754.139 833.398 841.398 746.139 841.398 638.5C841.398 530.861 754.139 443.602 646.5 443.602C538.861 443.602 451.602 530.861 451.602 638.5Z" fill="#243038"/>
<circle cx="790" cy="512" r="28" fill="#243038"/>
<path d="M789.994 527.248C789.574 527.248 789.148 527.135 788.778 526.922L784.911 524.635C784.335 524.309 784.617 524.196 784.805 524.134C785.576 523.864 785.732 523.808 786.553 523.338C786.641 523.287 786.754 523.306 786.842 523.363L789.812 525.124C789.919 525.186 790.069 525.186 790.169 525.124L801.744 518.443C801.85 518.381 801.919 518.255 801.919 518.13V504.769C801.919 504.638 801.85 504.518 801.738 504.45L790.169 497.775C790.063 497.713 789.919 497.713 789.812 497.775L778.25 504.456C778.137 504.518 778.068 504.644 778.068 504.775V518.13C778.068 518.255 778.137 518.381 778.25 518.437L781.421 520.267C783.144 521.125 784.197 520.116 784.197 519.095V505.91C784.197 505.722 784.347 505.578 784.535 505.578H786.002C786.184 505.578 786.34 505.722 786.34 505.91V519.101C786.34 521.395 785.087 522.711 782.912 522.711C782.242 522.711 781.715 522.711 780.249 521.984L777.216 520.236C776.464 519.803 776 518.995 776 518.124V504.769C776 503.904 776.464 503.09 777.216 502.657L788.778 495.977C789.511 495.563 790.483 495.563 791.209 495.977L802.784 502.663C803.536 503.096 804 503.904 804 504.775V518.13C804 518.995 803.536 519.803 802.784 520.242L791.209 526.922C790.84 527.135 790.42 527.248 789.994 527.248ZM799.338 514.082C799.338 511.581 797.645 510.917 794.092 510.447C790.495 509.971 790.132 509.726 790.132 508.886C790.132 508.191 790.439 507.263 793.102 507.263C795.477 507.263 796.355 507.777 796.718 509.381C796.749 509.532 796.887 509.645 797.044 509.645H798.548C798.642 509.645 798.73 509.607 798.792 509.538C798.855 509.469 798.886 509.375 798.88 509.281C798.648 506.518 796.812 505.233 793.102 505.233C789.799 505.233 787.832 506.624 787.832 508.962C787.832 511.493 789.793 512.195 792.958 512.509C796.749 512.878 797.044 513.436 797.044 514.182C797.044 515.473 796.004 516.024 793.566 516.024C790.501 516.024 789.831 515.253 789.605 513.731C789.58 513.568 789.442 513.449 789.273 513.449H787.775C787.587 513.449 787.443 513.599 787.443 513.781C787.443 515.73 788.502 518.055 793.572 518.055C797.232 518.048 799.338 516.601 799.338 514.082Z" fill="#589B63"/>
<circle cx="738" cy="815" r="24" fill="#243038"/>
<path d="M731.932 809.362C731.275 808.666 730.168 808.626 729.459 809.272L724.559 813.741C724.202 814.066 724 814.522 724 815C724 815.478 724.202 815.935 724.559 816.26L729.459 820.728C729.796 821.036 730.223 821.188 730.649 821.188C731.119 821.188 731.588 821.004 731.932 820.638C732.59 819.943 732.549 818.855 731.841 818.209L728.322 815L731.841 811.791C732.549 811.145 732.59 810.057 731.932 809.362ZM751.441 813.741L746.541 809.272C745.833 808.626 744.725 808.666 744.068 809.362C743.41 810.057 743.451 811.145 744.159 811.791L747.678 815L744.159 818.209C743.451 818.855 743.41 819.943 744.068 820.638C744.412 821.004 744.881 821.188 745.351 821.188C745.777 821.188 746.204 821.036 746.541 820.728L751.441 816.26C751.798 815.935 752 815.478 752 815C752 814.522 751.798 814.066 751.441 813.741ZM740.889 804.055C739.958 803.818 738.999 804.369 738.756 805.288L733.856 823.85C733.613 824.769 734.175 825.707 735.111 825.945C735.258 825.983 735.406 826 735.551 826C736.329 826 737.04 825.487 737.244 824.712L742.144 806.15C742.387 805.231 741.825 804.293 740.889 804.055Z" fill="#589B63"/>
<circle cx="461" cy="600" r="24" fill="#243038"/>
<path d="M461.024 609.858C460.917 609.858 460.811 609.828 460.715 609.777L459.742 609.199C459.595 609.118 459.666 609.088 459.717 609.073C459.909 609.007 459.95 608.992 460.157 608.87C460.178 608.86 460.208 608.865 460.228 608.875L460.978 609.321C461.003 609.336 461.044 609.336 461.069 609.321L463.997 607.629C464.023 607.614 464.043 607.583 464.043 607.548V604.169C464.043 604.133 464.028 604.103 463.997 604.088L461.069 602.401C461.044 602.386 461.009 602.386 460.978 602.401L458.05 604.088C458.02 604.103 458.004 604.138 458.004 604.169V607.548C458.004 607.578 458.025 607.609 458.05 607.624L458.85 608.085C459.286 608.303 459.555 608.044 459.555 607.791V604.453C459.555 604.407 459.59 604.366 459.641 604.366H460.011C460.056 604.366 460.097 604.402 460.097 604.453V607.791C460.097 608.374 459.783 608.703 459.23 608.703C459.063 608.703 458.926 608.703 458.557 608.521L457.787 608.08C457.599 607.968 457.478 607.766 457.478 607.548V604.169C457.478 603.951 457.594 603.743 457.787 603.637L460.715 601.945C460.902 601.838 461.145 601.838 461.328 601.945L464.256 603.637C464.443 603.748 464.565 603.951 464.565 604.169V607.548C464.565 607.766 464.448 607.973 464.256 608.08L461.328 609.772C461.242 609.828 461.135 609.858 461.024 609.858ZM463.39 606.525C463.39 605.891 462.964 605.724 462.062 605.603C461.15 605.481 461.059 605.42 461.059 605.207C461.059 605.03 461.135 604.797 461.809 604.797C462.412 604.797 462.635 604.929 462.726 605.334C462.736 605.375 462.766 605.4 462.807 605.4H463.187C463.212 605.4 463.232 605.39 463.248 605.375C463.263 605.354 463.273 605.334 463.268 605.309C463.207 604.61 462.746 604.285 461.809 604.285C460.973 604.285 460.477 604.64 460.477 605.228C460.477 605.871 460.973 606.043 461.773 606.124C462.731 606.221 462.807 606.357 462.807 606.545C462.807 606.874 462.544 607.011 461.925 607.011C461.15 607.011 460.978 606.818 460.922 606.433C460.917 606.393 460.882 606.362 460.836 606.362H460.456C460.411 606.362 460.37 606.398 460.37 606.449C460.37 606.94 460.639 607.528 461.92 607.528C462.858 607.528 463.39 607.163 463.39 606.525ZM466.15 603.986C466.15 604.295 465.897 604.549 465.588 604.549C465.279 604.549 465.026 604.295 465.026 603.986C465.026 603.667 465.289 603.424 465.588 603.424C465.892 603.419 466.15 603.667 466.15 603.986ZM466.059 603.986C466.059 603.723 465.847 603.515 465.583 603.515C465.325 603.515 465.112 603.723 465.112 603.986C465.112 604.25 465.325 604.463 465.583 604.463C465.847 604.458 466.059 604.245 466.059 603.986ZM465.831 604.301H465.7C465.695 604.27 465.674 604.108 465.674 604.103C465.664 604.068 465.654 604.047 465.608 604.047H465.497V604.301H465.375V603.667H465.593C465.669 603.667 465.816 603.667 465.816 603.834C465.816 603.951 465.74 603.976 465.695 603.992C465.781 603.997 465.786 604.052 465.801 604.133C465.806 604.184 465.816 604.27 465.831 604.301ZM465.689 603.855C465.689 603.769 465.629 603.769 465.598 603.769H465.497V603.946H465.593C465.674 603.946 465.689 603.89 465.689 603.855ZM451.956 596.636C451.956 596.499 451.885 596.377 451.768 596.311L448.663 594.523C448.612 594.493 448.551 594.478 448.49 594.473H448.46C448.399 594.473 448.344 594.493 448.288 594.523L445.187 596.311C445.071 596.377 445 596.504 445 596.636L445.005 601.448C445.005 601.514 445.041 601.575 445.096 601.611C445.152 601.646 445.223 601.646 445.284 601.611L447.128 600.552C447.244 600.481 447.315 600.359 447.315 600.227V597.978C447.315 597.846 447.386 597.72 447.503 597.654L448.288 597.203C448.349 597.168 448.409 597.152 448.475 597.152C448.541 597.152 448.607 597.168 448.663 597.203L449.448 597.654C449.564 597.72 449.635 597.846 449.635 597.978V600.227C449.635 600.359 449.706 600.486 449.823 600.552L451.667 601.611C451.723 601.646 451.799 601.646 451.854 601.611C451.91 601.58 451.945 601.514 451.945 601.448L451.956 596.636ZM468.937 591.382V600.319C468.937 600.45 468.866 600.577 468.749 600.643L465.644 602.436C465.527 602.502 465.386 602.502 465.269 602.436L462.164 600.643C462.047 600.577 461.976 600.45 461.976 600.319V596.732C461.976 596.6 462.047 596.474 462.164 596.408L465.269 594.614C465.386 594.549 465.527 594.549 465.644 594.614L466.419 595.06C466.505 595.111 466.617 595.045 466.617 594.949V590.187C466.617 590.045 466.769 589.954 466.895 590.025L468.744 591.058C468.861 591.119 468.937 591.245 468.937 591.382ZM466.606 597.912C466.606 597.877 466.586 597.846 466.561 597.831L465.497 597.213C465.467 597.198 465.431 597.198 465.401 597.213L464.337 597.831C464.306 597.846 464.291 597.877 464.291 597.912V599.143C464.291 599.179 464.312 599.209 464.337 599.224L465.401 599.837C465.431 599.853 465.467 599.853 465.492 599.837L466.556 599.224C466.586 599.209 466.601 599.179 466.601 599.143V597.912H466.606ZM477.235 597.877C477.351 597.811 477.422 597.684 477.422 597.553V596.686C477.422 596.555 477.351 596.428 477.235 596.362L474.15 594.569C474.033 594.503 473.891 594.503 473.775 594.569L470.669 596.362C470.553 596.428 470.482 596.555 470.482 596.686V600.273C470.482 600.41 470.553 600.531 470.669 600.597L473.755 602.355C473.866 602.421 474.008 602.421 474.124 602.355L475.989 601.317C476.115 601.246 476.115 601.063 475.989 600.992L472.863 599.199C472.802 599.164 472.767 599.103 472.767 599.037V597.912C472.767 597.846 472.802 597.786 472.863 597.75L473.836 597.188C473.891 597.152 473.967 597.152 474.023 597.188L474.996 597.75C475.051 597.786 475.092 597.846 475.092 597.912V598.794C475.092 598.936 475.249 599.027 475.376 598.956L477.235 597.877ZM473.319 598.054C473.299 598.069 473.283 598.09 473.283 598.115V598.804C473.283 598.829 473.299 598.855 473.319 598.865L473.917 599.209C473.937 599.224 473.967 599.224 473.988 599.209L474.585 598.865C474.606 598.85 474.621 598.829 474.621 598.804V598.115C474.621 598.09 474.606 598.064 474.585 598.054L473.988 597.71C473.967 597.694 473.937 597.694 473.917 597.71L473.319 598.054ZM460.441 600.258V596.691C460.441 596.56 460.36 596.433 460.244 596.367L457.148 594.584C457.042 594.523 456.895 594.513 456.773 594.584L453.678 596.367C453.562 596.433 453.48 596.555 453.48 596.691V600.258C453.48 600.4 453.577 600.521 453.683 600.582L456.783 602.365C456.905 602.436 457.047 602.431 457.158 602.365L460.249 600.582C460.34 600.531 460.406 600.445 460.431 600.344C460.436 600.319 460.441 600.288 460.441 600.258ZM456.677 593.93L456.637 593.956H456.692L456.677 593.93ZM460.537 600.526L460.517 600.491V600.537L460.537 600.526Z" fill="#589B63"/>
<path d="M667.92 627.414C667.198 627.173 666.476 626.946 665.753 626.732C665.874 626.237 665.981 625.742 666.088 625.248C667.732 617.278 666.649 610.873 662.999 608.761C659.482 606.741 653.746 608.841 647.943 613.895C647.368 614.39 646.806 614.911 646.271 615.433C645.91 615.085 645.536 614.738 645.161 614.403C639.077 609.001 632.98 606.728 629.329 608.854C625.826 610.887 624.783 616.917 626.254 624.459C626.401 625.207 626.562 625.943 626.749 626.692C625.893 626.932 625.051 627.2 624.262 627.481C617.121 629.954 612 633.859 612 637.897C612 642.069 617.456 646.254 624.877 648.795C625.478 648.995 626.08 649.196 626.695 649.37C626.495 650.172 626.321 650.961 626.16 651.777C624.756 659.198 625.853 665.081 629.356 667.1C632.967 669.186 639.037 667.047 644.947 661.872C645.415 661.458 645.883 661.03 646.351 660.575C646.94 661.15 647.555 661.698 648.17 662.233C653.893 667.154 659.549 669.146 663.039 667.127C666.649 665.041 667.826 658.716 666.302 651.014C666.181 650.426 666.048 649.824 665.901 649.209C666.328 649.089 666.743 648.955 667.157 648.822C674.873 646.268 680.462 642.136 680.462 637.897C680.462 633.845 675.194 629.914 667.92 627.414ZM649.828 616.061C654.802 611.729 659.442 610.031 661.555 611.248C663.815 612.545 664.684 617.786 663.266 624.673C663.173 625.127 663.079 625.568 662.959 626.01C659.99 625.341 656.982 624.86 653.96 624.592C652.222 622.105 650.323 619.725 648.264 617.492C648.785 616.997 649.293 616.529 649.828 616.061ZM634.357 644.837C635.039 646 635.734 647.163 636.47 648.3C634.384 648.073 632.311 647.738 630.265 647.297C630.854 645.372 631.589 643.379 632.445 641.347C633.06 642.524 633.689 643.687 634.357 644.837ZM630.306 628.751C632.231 628.323 634.277 627.975 636.403 627.708C635.694 628.818 634.999 629.954 634.344 631.104C633.689 632.241 633.047 633.404 632.445 634.581C631.603 632.589 630.894 630.636 630.306 628.751ZM633.969 637.964C634.852 636.119 635.815 634.313 636.831 632.535C637.847 630.757 638.944 629.032 640.094 627.334C642.099 627.186 644.145 627.106 646.231 627.106C648.317 627.106 650.376 627.186 652.369 627.334C653.505 629.018 654.588 630.743 655.618 632.508C656.647 634.273 657.61 636.079 658.519 637.91C657.624 639.756 656.661 641.574 655.631 643.366C654.615 645.144 653.532 646.869 652.395 648.581C650.403 648.728 648.33 648.795 646.231 648.795C644.132 648.795 642.099 648.728 640.134 648.608C638.97 646.909 637.874 645.171 636.844 643.393C635.815 641.614 634.865 639.809 633.969 637.964ZM658.118 644.81C658.8 643.633 659.442 642.443 660.071 641.24C660.926 643.179 661.675 645.144 662.33 647.163C660.258 647.631 658.158 647.993 656.046 648.233C656.768 647.11 657.45 645.96 658.118 644.81ZM660.044 634.581C659.415 633.404 658.774 632.228 658.105 631.078C657.45 629.941 656.768 628.818 656.059 627.708C658.212 627.975 660.271 628.336 662.197 628.778C661.582 630.757 660.86 632.682 660.044 634.581ZM646.258 619.538C647.662 621.062 648.986 622.667 650.216 624.325C647.568 624.205 644.907 624.205 642.26 624.325C643.57 622.6 644.921 620.995 646.258 619.538ZM630.747 611.341C632.993 610.031 637.981 611.903 643.236 616.556C643.57 616.85 643.904 617.171 644.252 617.492C642.18 619.725 640.267 622.105 638.516 624.592C635.494 624.86 632.499 625.328 629.53 625.983C629.356 625.301 629.209 624.606 629.062 623.91C627.805 617.439 628.634 612.558 630.747 611.341ZM627.471 646.589C626.909 646.428 626.361 646.254 625.813 646.067C622.965 645.171 619.729 643.754 617.389 641.895C616.038 640.959 615.129 639.515 614.875 637.897C614.875 635.45 619.1 632.321 625.198 630.195C625.96 629.928 626.735 629.687 627.511 629.46C628.42 632.361 629.517 635.209 630.787 637.964C629.503 640.759 628.393 643.647 627.471 646.589ZM643.062 659.693C640.856 661.712 638.302 663.316 635.52 664.413C634.036 665.121 632.325 665.188 630.8 664.587C628.674 663.356 627.792 658.636 628.995 652.285C629.142 651.536 629.303 650.787 629.49 650.052C632.485 650.694 635.507 651.135 638.569 651.362C640.334 653.863 642.273 656.256 644.346 658.503C643.918 658.917 643.49 659.318 643.062 659.693ZM646.338 656.443C644.974 654.972 643.61 653.341 642.286 651.589C643.57 651.643 644.894 651.67 646.231 651.67C647.608 651.67 648.959 651.643 650.296 651.576C649.066 653.274 647.742 654.892 646.338 656.443ZM663.815 660.455C663.694 662.086 662.892 663.61 661.608 664.64C659.482 665.87 654.949 664.266 650.055 660.067C649.494 659.586 648.932 659.064 648.357 658.529C650.403 656.269 652.288 653.876 654 651.362C657.062 651.108 660.111 650.64 663.119 649.958C663.253 650.506 663.373 651.055 663.48 651.589C664.136 654.478 664.243 657.486 663.815 660.455ZM666.248 646.08C665.874 646.201 665.499 646.321 665.112 646.428C664.176 643.513 663.026 640.665 661.702 637.897C662.986 635.169 664.069 632.361 664.978 629.486C665.673 629.687 666.342 629.901 666.984 630.115C673.215 632.254 677.587 635.437 677.587 637.87C677.587 640.491 672.921 643.874 666.248 646.08ZM646.231 644.075C649.614 644.075 652.355 641.334 652.355 637.951C652.355 634.568 649.614 631.826 646.231 631.826C642.848 631.826 640.107 634.568 640.107 637.951C640.107 641.334 642.848 644.075 646.231 644.075Z" fill="#589B63"/>
</svg>
