<svg width="1745" height="1745" viewBox="0 0 1745 1745" fill="none" xmlns="http://www.w3.org/2000/svg">
<path d="M1712.28 873.182C1712.28 1336.6 1336.6 1712.28 873.182 1712.28C409.76 1712.28 34.082 1336.6 34.082 873.182C34.082 409.76 409.76 34.082 873.182 34.082C1336.6 34.082 1712.28 409.76 1712.28 873.182ZM40.9228 873.182C40.9228 1332.83 413.538 1705.44 873.182 1705.44C1332.83 1705.44 1705.44 1332.83 1705.44 873.182C1705.44 413.538 1332.83 40.9228 873.182 40.9228C413.538 40.9228 40.9228 413.538 40.9228 873.182Z" fill="#243038"/>
<circle cx="230.395" cy="1406.91" r="32.7188" fill="#243038"/>
<path d="M222.123 1399.22C221.227 1398.27 219.717 1398.22 218.751 1399.1L212.071 1405.19C211.584 1405.63 211.309 1406.25 211.309 1406.91C211.309 1407.56 211.584 1408.18 212.071 1408.62L218.751 1414.72C219.21 1415.13 219.793 1415.34 220.373 1415.34C221.014 1415.34 221.653 1415.09 222.123 1414.59C223.019 1413.64 222.963 1412.16 221.998 1411.28L217.2 1406.91L221.998 1402.53C222.963 1401.65 223.019 1400.17 222.123 1399.22ZM248.718 1405.19L242.038 1399.1C241.073 1398.22 239.562 1398.27 238.666 1399.22C237.77 1400.17 237.826 1401.65 238.791 1402.53L243.589 1406.91L238.791 1411.28C237.826 1412.16 237.77 1413.64 238.666 1414.59C239.136 1415.09 239.775 1415.34 240.416 1415.34C240.996 1415.34 241.579 1415.13 242.038 1414.72L248.718 1408.62C249.205 1408.18 249.48 1407.56 249.48 1406.91C249.48 1406.25 249.205 1405.63 248.718 1405.19ZM234.333 1391.99C233.064 1391.66 231.756 1392.41 231.425 1393.67L224.745 1418.97C224.414 1420.22 225.18 1421.5 226.456 1421.83C226.657 1421.88 226.858 1421.9 227.056 1421.9C228.117 1421.9 229.085 1421.2 229.364 1420.15L236.044 1394.84C236.375 1393.59 235.609 1392.31 234.333 1391.99Z" fill="#589B63"/>
<circle cx="1326.47" cy="1585.5" r="38.1719" fill="#243038"/>
<path d="M1326.46 1606.28C1325.89 1606.28 1325.31 1606.13 1324.81 1605.84L1319.54 1602.72C1318.75 1602.28 1319.13 1602.12 1319.39 1602.04C1320.44 1601.67 1320.65 1601.59 1321.77 1600.95C1321.89 1600.88 1322.05 1600.91 1322.17 1600.99L1326.22 1603.39C1326.36 1603.47 1326.57 1603.47 1326.7 1603.39L1342.48 1594.28C1342.63 1594.19 1342.72 1594.02 1342.72 1593.85V1575.64C1342.72 1575.46 1342.63 1575.3 1342.47 1575.2L1326.7 1566.1C1326.56 1566.02 1326.36 1566.02 1326.22 1566.1L1310.45 1575.21C1310.3 1575.3 1310.21 1575.47 1310.21 1575.65V1593.85C1310.21 1594.02 1310.3 1594.19 1310.45 1594.27L1314.78 1596.77C1317.13 1597.94 1318.56 1596.56 1318.56 1595.17V1577.19C1318.56 1576.94 1318.77 1576.74 1319.02 1576.74H1321.02C1321.27 1576.74 1321.48 1576.94 1321.48 1577.19V1595.18C1321.48 1598.3 1319.77 1600.1 1316.81 1600.1C1315.9 1600.1 1315.18 1600.1 1313.18 1599.11L1309.04 1596.72C1308.02 1596.13 1307.39 1595.03 1307.39 1593.84V1575.64C1307.39 1574.46 1308.02 1573.35 1309.04 1572.76L1324.81 1563.65C1325.81 1563.09 1327.13 1563.09 1328.12 1563.65L1343.9 1572.77C1344.93 1573.36 1345.56 1574.46 1345.56 1575.65V1593.85C1345.56 1595.03 1344.93 1596.13 1343.9 1596.73L1328.12 1605.84C1327.62 1606.13 1327.05 1606.28 1326.46 1606.28ZM1339.2 1588.33C1339.2 1584.93 1336.9 1584.02 1332.05 1583.38C1327.15 1582.73 1326.65 1582.4 1326.65 1581.25C1326.65 1580.3 1327.07 1579.04 1330.7 1579.04C1333.94 1579.04 1335.14 1579.74 1335.63 1581.93C1335.67 1582.13 1335.86 1582.29 1336.08 1582.29H1338.13C1338.25 1582.29 1338.37 1582.23 1338.46 1582.14C1338.54 1582.05 1338.59 1581.92 1338.58 1581.79C1338.26 1578.02 1335.76 1576.27 1330.7 1576.27C1326.2 1576.27 1323.52 1578.17 1323.52 1581.35C1323.52 1584.81 1326.19 1585.76 1330.51 1586.19C1335.67 1586.69 1336.08 1587.45 1336.08 1588.47C1336.08 1590.23 1334.66 1590.98 1331.33 1590.98C1327.16 1590.98 1326.24 1589.93 1325.93 1587.86C1325.9 1587.63 1325.71 1587.47 1325.48 1587.47H1323.44C1323.18 1587.47 1322.99 1587.68 1322.99 1587.92C1322.99 1590.58 1324.43 1593.75 1331.34 1593.75C1336.33 1593.74 1339.2 1591.77 1339.2 1588.33Z" fill="#589B63"/>
<circle cx="1435.54" cy="250.844" r="40.8984" fill="#243038"/>
<path d="M1435.58 267.643C1435.39 267.643 1435.21 267.591 1435.05 267.505L1433.39 266.52C1433.14 266.382 1433.26 266.33 1433.35 266.305C1433.68 266.192 1433.75 266.166 1434.1 265.959C1434.13 265.942 1434.19 265.951 1434.22 265.968L1435.5 266.728C1435.54 266.753 1435.61 266.753 1435.65 266.728L1440.64 263.844C1440.69 263.818 1440.72 263.766 1440.72 263.706V257.948C1440.72 257.887 1440.69 257.836 1440.64 257.81L1435.65 254.935C1435.61 254.909 1435.55 254.909 1435.5 254.935L1430.51 257.81C1430.46 257.836 1430.43 257.896 1430.43 257.948V263.706C1430.43 263.758 1430.46 263.81 1430.51 263.836L1431.87 264.621C1432.61 264.992 1433.07 264.552 1433.07 264.12V258.431C1433.07 258.354 1433.13 258.285 1433.22 258.285H1433.85C1433.93 258.285 1434 258.345 1434 258.431V264.12C1434 265.113 1433.46 265.674 1432.52 265.674C1432.23 265.674 1432 265.674 1431.37 265.364L1430.06 264.613C1429.74 264.423 1429.53 264.077 1429.53 263.706V257.948C1429.53 257.577 1429.73 257.223 1430.06 257.041L1435.05 254.158C1435.37 253.977 1435.78 253.977 1436.09 254.158L1441.08 257.041C1441.4 257.231 1441.61 257.577 1441.61 257.948V263.706C1441.61 264.077 1441.41 264.431 1441.08 264.613L1436.09 267.496C1435.95 267.591 1435.77 267.643 1435.58 267.643ZM1439.61 261.962C1439.61 260.883 1438.88 260.598 1437.35 260.391C1435.79 260.184 1435.64 260.08 1435.64 259.718C1435.64 259.415 1435.77 259.018 1436.91 259.018C1437.94 259.018 1438.32 259.243 1438.48 259.933C1438.49 260.003 1438.55 260.046 1438.61 260.046H1439.26C1439.31 260.046 1439.34 260.028 1439.37 260.003C1439.39 259.968 1439.41 259.933 1439.4 259.89C1439.3 258.699 1438.51 258.146 1436.91 258.146C1435.49 258.146 1434.64 258.751 1434.64 259.752C1434.64 260.849 1435.49 261.142 1436.85 261.28C1438.48 261.444 1438.61 261.677 1438.61 261.997C1438.61 262.558 1438.17 262.791 1437.11 262.791C1435.79 262.791 1435.5 262.463 1435.4 261.807C1435.39 261.738 1435.33 261.686 1435.26 261.686H1434.61C1434.53 261.686 1434.46 261.746 1434.46 261.833C1434.46 262.67 1434.92 263.672 1437.1 263.672C1438.7 263.672 1439.61 263.05 1439.61 261.962ZM1444.31 257.637C1444.31 258.164 1443.88 258.595 1443.35 258.595C1442.83 258.595 1442.4 258.164 1442.4 257.637C1442.4 257.093 1442.84 256.679 1443.35 256.679C1443.87 256.67 1444.31 257.093 1444.31 257.637ZM1444.16 257.637C1444.16 257.188 1443.79 256.834 1443.35 256.834C1442.9 256.834 1442.54 257.188 1442.54 257.637C1442.54 258.086 1442.9 258.449 1443.35 258.449C1443.79 258.44 1444.16 258.077 1444.16 257.637ZM1443.77 258.172H1443.54C1443.54 258.121 1443.5 257.844 1443.5 257.836C1443.48 257.775 1443.47 257.741 1443.39 257.741H1443.2V258.172H1442.99V257.093H1443.36C1443.49 257.093 1443.74 257.093 1443.74 257.378C1443.74 257.577 1443.61 257.62 1443.54 257.646C1443.68 257.654 1443.69 257.749 1443.72 257.887C1443.73 257.974 1443.74 258.121 1443.77 258.172ZM1443.53 257.413C1443.53 257.266 1443.42 257.266 1443.37 257.266H1443.2V257.568H1443.36C1443.5 257.568 1443.53 257.473 1443.53 257.413ZM1420.12 245.111C1420.12 244.878 1420 244.67 1419.8 244.558L1414.51 241.511C1414.42 241.459 1414.32 241.433 1414.22 241.424H1414.17C1414.06 241.424 1413.97 241.459 1413.87 241.511L1408.59 244.558C1408.39 244.67 1408.27 244.886 1408.27 245.111L1408.28 253.312C1408.28 253.424 1408.34 253.528 1408.43 253.588C1408.53 253.649 1408.65 253.649 1408.75 253.588L1411.9 251.784C1412.09 251.663 1412.21 251.456 1412.21 251.231V247.398C1412.21 247.174 1412.34 246.958 1412.53 246.846L1413.87 246.078C1413.98 246.017 1414.08 245.991 1414.19 245.991C1414.3 245.991 1414.42 246.017 1414.51 246.078L1415.85 246.846C1416.05 246.958 1416.17 247.174 1416.17 247.398V251.231C1416.17 251.456 1416.29 251.672 1416.49 251.784L1419.63 253.588C1419.73 253.649 1419.85 253.649 1419.95 253.588C1420.04 253.536 1420.11 253.424 1420.11 253.312L1420.12 245.111ZM1449.06 236.158V251.387C1449.06 251.611 1448.94 251.827 1448.74 251.939L1443.45 254.995C1443.25 255.108 1443.01 255.108 1442.81 254.995L1437.52 251.939C1437.32 251.827 1437.2 251.611 1437.2 251.387V245.275C1437.2 245.05 1437.32 244.834 1437.52 244.722L1442.81 241.666C1443.01 241.554 1443.25 241.554 1443.45 241.666L1444.77 242.426C1444.92 242.512 1445.11 242.4 1445.11 242.236V234.121C1445.11 233.879 1445.37 233.724 1445.58 233.845L1448.73 235.606C1448.93 235.709 1449.06 235.925 1449.06 236.158ZM1445.09 247.286C1445.09 247.226 1445.05 247.174 1445.01 247.148L1443.2 246.095C1443.15 246.069 1443.09 246.069 1443.03 246.095L1441.22 247.148C1441.17 247.174 1441.14 247.226 1441.14 247.286V249.384C1441.14 249.444 1441.18 249.496 1441.22 249.522L1443.03 250.567C1443.09 250.593 1443.15 250.593 1443.19 250.567L1445 249.522C1445.05 249.496 1445.08 249.444 1445.08 249.384V247.286H1445.09ZM1463.2 247.226C1463.4 247.113 1463.52 246.898 1463.52 246.673V245.197C1463.52 244.973 1463.4 244.757 1463.2 244.644L1457.94 241.588C1457.75 241.476 1457.5 241.476 1457.3 241.588L1452.01 244.644C1451.81 244.757 1451.69 244.973 1451.69 245.197V251.309C1451.69 251.542 1451.81 251.749 1452.01 251.862L1457.27 254.857C1457.46 254.969 1457.7 254.969 1457.9 254.857L1461.08 253.088C1461.29 252.967 1461.29 252.656 1461.08 252.535L1455.75 249.479C1455.65 249.418 1455.59 249.315 1455.59 249.203V247.286C1455.59 247.174 1455.65 247.07 1455.75 247.01L1457.41 246.052C1457.5 245.991 1457.63 245.991 1457.73 246.052L1459.39 247.01C1459.48 247.07 1459.55 247.174 1459.55 247.286V248.788C1459.55 249.03 1459.82 249.185 1460.03 249.065L1463.2 247.226ZM1456.53 247.528C1456.49 247.554 1456.47 247.588 1456.47 247.631V248.806C1456.47 248.849 1456.49 248.892 1456.53 248.909L1457.55 249.496C1457.58 249.522 1457.63 249.522 1457.67 249.496L1458.69 248.909C1458.72 248.883 1458.75 248.849 1458.75 248.806V247.631C1458.75 247.588 1458.72 247.545 1458.69 247.528L1457.67 246.941C1457.63 246.915 1457.58 246.915 1457.55 246.941L1456.53 247.528ZM1434.58 251.283V245.206C1434.58 244.981 1434.44 244.765 1434.25 244.653L1428.97 241.614C1428.79 241.511 1428.54 241.493 1428.33 241.614L1423.06 244.653C1422.86 244.765 1422.72 244.973 1422.72 245.206V251.283C1422.72 251.525 1422.89 251.732 1423.07 251.836L1428.35 254.875C1428.56 254.995 1428.8 254.987 1428.99 254.875L1434.25 251.836C1434.41 251.749 1434.52 251.603 1434.57 251.43C1434.57 251.387 1434.58 251.335 1434.58 251.283ZM1428.17 240.501L1428.1 240.544H1428.19L1428.17 240.501ZM1434.75 251.741L1434.71 251.68V251.758L1434.75 251.741Z" fill="#589B63"/>
<circle cx="241.301" cy="324.461" r="42.2617" fill="#243038"/>
<path d="M220.852 302.648L224.693 346.008L241.927 351.727L259.272 346.008L263.113 302.648H220.852ZM254.771 316.66H234.543L234.994 322.072H254.32L252.823 338.329L242.048 341.287V341.319H241.927L231.065 338.329L230.404 330.025H235.654L236.039 334.199L241.927 335.787L247.837 334.199L248.498 327.385H230.129L228.721 311.434H255.255L254.771 316.66Z" fill="#589B63"/>
</svg>
