<svg width="194" height="170" viewBox="0 0 194 170" fill="none" xmlns="http://www.w3.org/2000/svg">
<path d="M158.459 55.0905C156.413 54.4075 154.366 53.7625 152.32 53.1554C152.661 51.7514 152.964 50.3475 153.268 48.9435C157.928 26.3287 154.859 8.1533 144.515 2.15809C134.55 -3.57152 118.295 2.38575 101.85 16.7287C100.221 18.1327 98.6293 19.6125 97.1137 21.0923C96.0906 20.1058 95.0297 19.1192 93.9688 18.1706C76.7285 2.84109 59.4504 -3.60946 49.1063 2.4237C39.1789 8.19125 36.2234 25.3042 40.3914 46.7048C40.8082 48.8297 41.2629 50.9166 41.7934 53.0415C39.3684 53.7245 36.9812 54.4834 34.7457 55.2802C14.5121 62.3 0 73.3797 0 84.8389C0 96.6776 15.4594 108.554 36.4887 115.764C38.1938 116.333 39.8988 116.902 41.6418 117.395C41.0734 119.672 40.5809 121.911 40.1262 124.225C36.1477 145.284 39.2547 161.98 49.182 167.71C59.4125 173.629 76.6148 167.558 93.3625 152.873C94.6887 151.697 96.0148 150.483 97.341 149.193C99.0082 150.824 100.751 152.38 102.494 153.898C118.711 167.861 134.739 173.515 144.629 167.785C154.859 161.866 158.193 143.918 153.874 122.062C153.533 120.393 153.154 118.685 152.737 116.94C153.95 116.598 155.124 116.219 156.299 115.84C178.162 108.592 194 96.8673 194 84.8389C194 73.3418 179.071 62.1861 158.459 55.0905ZM107.193 22.8757C121.288 10.5817 134.436 5.7628 140.423 9.21574C146.826 12.8964 149.289 27.7706 145.273 47.3119C145.007 48.602 144.742 49.8542 144.401 51.1064C135.989 49.2091 127.464 47.8432 118.901 47.0843C113.975 40.0266 108.595 33.2725 102.759 26.9358C104.237 25.5318 105.677 24.2038 107.193 22.8757ZM63.3531 104.532C65.2855 107.833 67.2559 111.134 69.3398 114.36C63.4289 113.715 57.5559 112.766 51.7586 111.514C53.4258 106.05 55.5098 100.396 57.9348 94.6286C59.6777 97.9677 61.4586 101.269 63.3531 104.532ZM51.8723 58.885C57.3285 57.6707 63.1258 56.6842 69.1504 55.9253C67.1422 59.0747 65.1719 62.3 63.3152 65.5632C61.4586 68.7885 59.6398 72.0896 57.9348 75.4287C55.5477 69.775 53.5395 64.2351 51.8723 58.885ZM62.2543 85.0287C64.7551 79.7923 67.4832 74.6698 70.3629 69.6232C73.2426 64.5766 76.3496 59.6818 79.6082 54.8629C85.2918 54.4455 91.0891 54.2178 97 54.2178C102.911 54.2178 108.746 54.4455 114.392 54.8629C117.612 59.6439 120.682 64.5387 123.599 69.5473C126.517 74.556 129.245 79.6785 131.821 84.8769C129.283 90.1132 126.555 95.2736 123.637 100.358C120.757 105.405 117.688 110.3 114.468 115.157C108.822 115.574 102.949 115.764 97 115.764C91.0512 115.764 85.2918 115.574 79.7219 115.232C76.4254 110.413 73.3184 105.481 70.4008 100.434C67.4832 95.3875 64.793 90.265 62.2543 85.0287ZM130.685 104.456C132.617 101.117 134.436 97.74 136.217 94.325C138.642 99.827 140.764 105.405 142.62 111.134C136.747 112.462 130.798 113.487 124.812 114.17C126.858 110.983 128.79 107.719 130.685 104.456ZM136.141 75.4287C134.36 72.0896 132.541 68.7505 130.647 65.4873C128.79 62.262 126.858 59.0747 124.85 55.9253C130.95 56.6842 136.785 57.7087 142.241 58.9609C140.498 64.5766 138.452 70.0406 136.141 75.4287ZM97.0758 32.7413C101.054 37.0669 104.805 41.6203 108.291 46.3254C100.789 45.9839 93.2488 45.9839 85.7465 46.3254C89.4598 41.4305 93.2867 36.8772 97.0758 32.7413ZM53.1227 9.48136C59.4883 5.7628 73.6215 11.075 88.5125 24.2797C89.4598 25.1145 90.407 26.0251 91.3922 26.9358C85.5191 33.2725 80.1008 40.0266 75.1371 47.0843C66.5738 47.8432 58.0863 49.1712 49.6746 51.0305C49.182 49.0953 48.7652 47.1222 48.3484 45.1491C44.7867 26.784 47.1359 12.9343 53.1227 9.48136ZM43.8395 109.503C42.248 109.047 40.6945 108.554 39.141 108.023C31.0703 105.481 21.9008 101.459 15.2699 96.1843C11.443 93.5282 8.86641 89.4302 8.14648 84.8389C8.14648 77.8951 20.1199 69.0161 37.398 62.983C39.5578 62.2241 41.7555 61.5411 43.9531 60.896C46.5297 69.13 49.6367 77.2121 53.2363 85.0287C49.5988 92.959 46.4539 101.155 43.8395 109.503ZM88.0199 146.688C81.768 152.418 74.5309 156.971 66.6496 160.083C62.4437 162.094 57.5938 162.283 53.2742 160.576C47.2496 157.085 44.7488 143.691 48.159 125.667C48.5758 123.542 49.0305 121.417 49.5609 119.33C58.0484 121.152 66.6117 122.404 75.2887 123.049C80.2902 130.145 85.7844 136.937 91.6574 143.311C90.4449 144.488 89.2324 145.626 88.0199 146.688ZM97.3031 137.468C93.4383 133.294 89.5734 128.665 85.8223 123.694C89.4598 123.846 93.2109 123.922 97 123.922C100.903 123.922 104.73 123.846 108.519 123.656C105.033 128.475 101.282 133.066 97.3031 137.468ZM146.826 148.851C146.485 153.48 144.212 157.806 140.574 160.728C134.55 164.219 121.705 159.665 107.837 147.751C106.245 146.385 104.654 144.905 103.025 143.387C108.822 136.975 114.164 130.182 119.014 123.049C127.691 122.328 136.33 121 144.856 119.065C145.235 120.621 145.576 122.176 145.879 123.694C147.736 131.89 148.039 140.427 146.826 148.851ZM153.722 108.061C152.661 108.402 151.6 108.744 150.502 109.047C147.849 100.776 144.591 92.6934 140.839 84.8389C144.477 77.0983 147.546 69.13 150.123 60.9719C152.093 61.5411 153.988 62.1482 155.806 62.7553C173.463 68.8264 185.854 77.8572 185.854 84.763C185.854 92.2002 172.63 101.8 153.722 108.061ZM97 102.369C106.586 102.369 114.354 94.5906 114.354 84.9907C114.354 75.3908 106.586 67.6122 97 67.6122C87.4137 67.6122 79.6461 75.3908 79.6461 84.9907C79.6461 94.5906 87.4137 102.369 97 102.369Z" fill="#1D2429"/>
</svg>
