<svg width="64" height="64" viewBox="0 0 64 64" fill="none" xmlns="http://www.w3.org/2000/svg">
<g clip-path="url(#clip0_88_5551)">
<path d="M62.1932 1.86234C60.5926 0.219514 58.2236 -0.392521 56.0147 0.251726L4.50559 15.2305C2.17503 15.8779 0.523159 17.7366 0.0781765 20.0978C-0.37641 22.5008 1.21144 25.5513 3.28589 26.8269L19.3917 36.7258C21.0436 37.7405 23.1756 37.486 24.5426 36.1073L42.9853 17.5498C43.9137 16.5834 45.4504 16.5834 46.3787 17.5498C47.3071 18.4839 47.3071 19.9979 46.3787 20.9643L27.904 39.525C26.5338 40.9005 26.2777 43.0426 27.2861 44.7048L37.1269 60.972C38.2794 62.9048 40.2642 64 42.4411 64C42.6972 64 42.9853 64 43.2414 63.9678C45.7385 63.6457 47.7233 61.9384 48.4596 59.5225L63.7298 8.07933C64.4021 5.88889 63.7939 3.50518 62.1932 1.86234Z" fill="#181F24"/>
</g>
<defs>
<clipPath id="clip0_88_5551">
<rect width="64" height="64" fill="white"/>
</clipPath>
</defs>
</svg>
