<svg width="64" height="64" viewBox="0 0 64 64" fill="none" xmlns="http://www.w3.org/2000/svg">
<g clip-path="url(#clip0_88_5558)">
<path d="M27.9985 12.0124L27.9991 18.1054L31.718 21.8234C30.8582 17.4645 32.1546 13.0275 35.2791 9.9025C37.81 7.37137 41.169 6.01175 44.6531 6.0115H44.7937L37.623 13.1519L39.5146 24.4785L50.8421 26.3679L57.9972 19.2117C58.0289 22.7426 56.6699 26.1486 54.0921 28.711C52.9361 29.8829 51.5769 30.7735 50.1239 31.4142C50.3426 31.6174 50.6082 31.7735 50.827 31.9922L54.6552 35.8351C55.9676 35.0382 57.2175 34.0851 58.3422 32.9601C63.0915 28.2102 65.0439 21.1796 63.4184 14.6494C63.0432 13.1182 61.8712 11.9154 60.3714 11.4937C58.8402 11.072 57.2154 11.5096 56.1217 12.619L48.7791 19.947L44.7325 19.2755L44.0602 15.2136L51.3872 7.90125C52.4965 6.77625 52.9181 5.15137 52.4961 3.65162C52.0897 2.13625 50.871 0.964625 49.3399 0.58975C42.6995 -1.06562 35.8564 0.841 31.029 5.65337C29.7479 6.93462 28.7169 8.37212 27.8577 9.90325L27.9984 9.997L27.9985 12.0124ZM13.2536 56.7429C11.6602 58.3365 8.84787 58.3369 7.2385 56.7434C6.44162 55.9467 5.98837 54.8687 5.98825 53.7439C5.98812 52.6034 6.4255 51.541 7.23787 50.7441L24.0321 33.9476L19.7976 29.7141L3.00337 46.495C1.06625 48.4325 0.004 51.0104 0.00425 53.7444C0.0045 56.4784 1.06725 59.0562 3.00475 60.9932C4.94237 62.9304 7.52037 63.9925 10.2545 63.9922C12.9887 63.992 15.5666 62.9294 17.5039 60.992L30.1112 48.3829C28.908 46.3989 28.2202 44.1491 28.1576 41.8682L13.2536 56.7429ZM62.6404 49.4579L47.9994 34.8202C45.1086 31.9302 40.7964 31.3682 37.328 33.0871L23.9995 19.7617L23.9987 11.9971L7.99875 0L0 7.99975L12.0007 23.9967L19.7659 23.9961L33.0944 37.3214C31.3916 40.7899 31.9389 45.1019 34.8296 47.9919L49.4706 62.6294C51.2831 64.4571 54.2361 64.4569 56.0484 62.6287L62.641 56.0351C64.4532 54.2071 64.453 51.2699 62.6404 49.4579Z" fill="#181F24"/>
</g>
<defs>
<clipPath id="clip0_88_5558">
<rect width="64" height="64" fill="white"/>
</clipPath>
</defs>
</svg>
