<svg width="64" height="64" viewBox="0 0 64 64" fill="none" xmlns="http://www.w3.org/2000/svg">
<g clip-path="url(#clip0_88_5564)">
<path d="M55.5792 2.52637C56.0442 2.52637 56.4213 2.14935 56.4213 1.68427C56.4213 1.21919 56.0442 0.842163 55.5792 0.842163C55.1141 0.842163 54.7371 1.21919 54.7371 1.68427C54.7371 2.14935 55.1141 2.52637 55.5792 2.52637Z" fill="#F1BC19"/>
<path d="M32 64C49.6731 64 64 49.6731 64 32C64 14.3269 49.6731 0 32 0C14.3269 0 0 14.3269 0 32C0 49.6731 14.3269 64 32 64Z" fill="#F9DBD2"/>
<path d="M60.6314 6.73684C62.4917 6.73684 63.9998 5.22875 63.9998 3.36842C63.9998 1.50809 62.4917 0 60.6314 0C58.771 0 57.2629 1.50809 57.2629 3.36842C57.2629 5.22875 58.771 6.73684 60.6314 6.73684Z" fill="#F1BC19"/>
<path d="M1.68421 13.4738C2.61437 13.4738 3.36842 12.7197 3.36842 11.7896C3.36842 10.8594 2.61437 10.1053 1.68421 10.1053C0.754047 10.1053 0 10.8594 0 11.7896C0 12.7197 0.754047 13.4738 1.68421 13.4738Z" fill="#EE3E54"/>
<path d="M55.579 56.4209C56.5091 56.4209 57.2632 55.6669 57.2632 54.7367C57.2632 53.8065 56.5091 53.0525 55.579 53.0525C54.6488 53.0525 53.8948 53.8065 53.8948 54.7367C53.8948 55.6669 54.6488 56.4209 55.579 56.4209Z" fill="#FBCD59"/>
<path d="M4.21071 58.9475C6.07103 58.9475 7.57913 57.4394 7.57913 55.5791C7.57913 53.7188 6.07103 52.2107 4.21071 52.2107C2.35038 52.2107 0.842285 53.7188 0.842285 55.5791C0.842285 57.4394 2.35038 58.9475 4.21071 58.9475Z" fill="#FBCD59"/>
<path d="M10.1054 61.4738C11.0355 61.4738 11.7896 60.7197 11.7896 59.7896C11.7896 58.8594 11.0355 58.1053 10.1054 58.1053C9.17519 58.1053 8.42114 58.8594 8.42114 59.7896C8.42114 60.7197 9.17519 61.4738 10.1054 61.4738Z" fill="#EE3E54"/>
<path d="M45.8805 58.1054C47.0353 58.1054 47.9714 57.1692 47.9714 56.0144C47.9714 54.8596 47.0353 53.9235 45.8805 53.9235C44.7257 53.9235 43.7896 54.8596 43.7896 56.0144C43.7896 57.1692 44.7257 58.1054 45.8805 58.1054Z" fill="white"/>
<path d="M3.36847 31.158C3.83355 31.158 4.21058 30.7809 4.21058 30.3159C4.21058 29.8508 3.83355 29.4738 3.36847 29.4738C2.90339 29.4738 2.52637 29.8508 2.52637 30.3159C2.52637 30.7809 2.90339 31.158 3.36847 31.158Z" fill="white"/>
<path d="M62.3157 16.842C62.7808 16.842 63.1578 16.465 63.1578 15.9999C63.1578 15.5349 62.7808 15.1578 62.3157 15.1578C61.8507 15.1578 61.4736 15.5349 61.4736 15.9999C61.4736 16.465 61.8507 16.842 62.3157 16.842Z" fill="#F1BC19"/>
<path d="M57.2631 47.1577C58.1932 47.1577 58.9473 46.4037 58.9473 45.4735C58.9473 44.5434 58.1932 43.7893 57.2631 43.7893C56.3329 43.7893 55.5789 44.5434 55.5789 45.4735C55.5789 46.4037 56.3329 47.1577 57.2631 47.1577Z" fill="white"/>
<path d="M31.9999 52.4206C43.2781 52.4206 52.421 43.2778 52.421 31.9995C52.421 20.7213 43.2781 11.5785 31.9999 11.5785C20.7217 11.5785 11.5789 20.7213 11.5789 31.9995C11.5789 43.2778 20.7217 52.4206 31.9999 52.4206Z" fill="#78A0CF"/>
<path d="M31.9998 53.0104C20.4149 53.0104 10.9893 43.5856 10.9893 31.9999C10.9893 20.4142 20.4149 10.9894 31.9998 10.9894C43.5846 10.9894 53.0103 20.4142 53.0103 31.9999C53.0103 43.5856 43.5846 53.0104 31.9998 53.0104ZM31.9998 12.1683C21.065 12.1683 12.1682 21.0643 12.1682 31.9999C12.1682 42.9355 21.065 51.8315 31.9998 51.8315C42.9345 51.8315 51.8314 42.9346 51.8314 31.9999C51.8314 21.0652 42.9345 12.1683 31.9998 12.1683Z" fill="#472B29"/>
<path d="M31.948 49.2629C41.4534 49.2629 49.159 41.5811 49.159 32.105C49.159 22.629 41.4534 14.9471 31.948 14.9471C22.4427 14.9471 14.7371 22.629 14.7371 32.105C14.7371 41.5811 22.4427 49.2629 31.948 49.2629Z" fill="#78A0CF"/>
<path d="M48.3575 27.5789C48.1773 27.5789 48.0105 27.4619 47.955 27.2808C47.8809 27.0391 47.8009 26.8 47.7158 26.5625C47.3857 25.6412 46.9697 24.7444 46.4779 23.8939C46.3609 23.6935 46.4299 23.4349 46.6312 23.3187C46.8324 23.2 47.0901 23.2707 47.2063 23.4728C47.7234 24.3663 48.1613 25.3103 48.5082 26.2779C48.5975 26.528 48.6817 26.7789 48.7592 27.0332C48.8274 27.2556 48.7028 27.4914 48.4796 27.5596C48.4392 27.573 48.3979 27.5789 48.3575 27.5789Z" fill="#472B29"/>
<path d="M31.9998 49.5789C22.3064 49.5789 14.4209 41.7161 14.4209 32.0521C14.4209 22.3881 22.3064 14.5262 31.9998 14.5262C37.0314 14.5262 41.8306 16.682 45.167 20.4403C45.4188 20.7241 45.6622 21.0172 45.8954 21.317C46.0377 21.5006 46.0049 21.7641 45.8222 21.9073C45.6386 22.0521 45.3742 22.0176 45.231 21.8332C45.0087 21.5477 44.7763 21.2698 44.5371 20.9995C41.3607 17.4214 36.7906 15.3684 31.9998 15.3684C22.7712 15.3684 15.263 22.853 15.263 32.053C15.263 41.253 22.7712 48.7368 31.9998 48.7368C41.2285 48.7368 48.7367 41.2521 48.7367 32.0521C48.7367 31.2142 48.6735 30.3713 48.5497 29.5486C48.5152 29.3195 48.6735 29.1048 48.9034 29.0702C49.1375 29.0357 49.3481 29.194 49.3826 29.4239C49.5123 30.2871 49.5788 31.1721 49.5788 32.0521C49.5788 41.7161 41.6933 49.5789 31.9998 49.5789Z" fill="#472B29"/>
<path d="M42.8977 25.9131C42.1423 26.2558 41.3314 26.4874 40.4775 26.5901C41.3474 26.0579 42.0151 25.2141 42.3301 24.2095C41.5158 24.7021 40.6139 25.0608 39.6556 25.2537C38.8867 24.4175 37.792 23.8945 36.5793 23.8945C34.2526 23.8945 32.368 25.8213 32.368 28.1985C32.368 28.5354 32.405 28.8646 32.4758 29.1796C28.9743 29.0002 25.8711 27.2865 23.7937 24.6819C23.4316 25.3177 23.2236 26.0571 23.2236 26.8461C23.2236 28.34 23.9671 29.6571 25.0964 30.4301C24.4067 30.4074 23.7566 30.2145 23.1882 29.892C23.1873 29.9097 23.1873 29.9282 23.1873 29.9459C23.1873 32.0326 24.6391 33.7724 26.5659 34.1674C26.213 34.2651 25.8408 34.3181 25.456 34.3181C25.184 34.3181 24.9204 34.2912 24.6644 34.2415C25.2 35.951 26.7562 37.1956 28.5987 37.231C27.1579 38.3855 25.3415 39.0743 23.3684 39.0743C23.0282 39.0743 22.6922 39.0533 22.3638 39.0145C24.2273 40.2347 26.4421 40.9472 28.821 40.9472C36.5692 40.9472 40.8067 34.388 40.8067 28.6987C40.8067 28.5126 40.8017 28.3265 40.7941 28.1413C41.6185 27.5341 42.3318 26.7779 42.8977 25.9131Z" fill="white"/>
<path d="M28.8212 41.3683C26.4464 41.3683 24.134 40.676 22.1332 39.3666C21.9698 39.2596 21.9016 39.0542 21.9681 38.8706C22.0347 38.687 22.2208 38.5699 22.4136 38.5969C24.1905 38.8091 25.9816 38.4209 27.4915 37.4954C25.985 37.0904 24.7513 35.9274 24.2629 34.367C24.2182 34.2255 24.2519 34.0706 24.3505 33.9603C24.449 33.8499 24.5997 33.7969 24.7446 33.8289C24.7505 33.8297 24.7555 33.8306 24.7614 33.8314C23.5454 32.9691 22.7665 31.5316 22.7665 29.9468C22.7665 29.7969 22.8465 29.631 22.9761 29.556C23.105 29.4803 23.2658 29.4516 23.3963 29.5266C23.5067 29.5889 23.6212 29.6462 23.7366 29.6967C23.1378 28.8874 22.8018 27.8912 22.8018 26.847C22.8018 26.0142 23.0182 25.1931 23.4275 24.4748C23.4966 24.3527 23.6212 24.2744 23.761 24.2634C23.905 24.2533 24.0363 24.3114 24.1231 24.4209C26.0793 26.8714 28.9172 28.42 31.9749 28.7207C31.9572 28.5489 31.9479 28.3746 31.9479 28.1994C31.9479 25.5939 34.0254 23.4744 36.5795 23.4744C37.777 23.4744 38.9349 23.9518 39.7947 24.7939C40.609 24.6053 41.3879 24.2887 42.1121 23.8508C42.262 23.7598 42.4523 23.7716 42.5896 23.8794C42.7277 23.988 42.7841 24.1699 42.7311 24.3367C42.5593 24.8841 42.2915 25.391 41.9454 25.8339C42.209 25.7464 42.4683 25.6453 42.7218 25.5308C42.8928 25.4533 43.0932 25.4979 43.2153 25.6403C43.3374 25.7817 43.3509 25.9872 43.2481 26.1447C42.694 26.9935 42.0128 27.7329 41.222 28.3451C41.2254 28.4638 41.2271 28.5809 41.2271 28.6996C41.2279 34.927 36.5871 41.3683 28.8212 41.3683ZM24.0473 39.4702C25.5412 40.164 27.1648 40.5262 28.8212 40.5262C36.0608 40.5262 40.3858 34.5127 40.3858 28.6988C40.3858 28.5177 40.3816 28.3375 40.374 28.1582C40.3681 28.0175 40.4321 27.8845 40.545 27.8011C40.9551 27.4996 41.334 27.1611 41.6793 26.7897C41.302 26.8883 40.9172 26.9607 40.5273 27.0078C40.3344 27.0365 40.1441 26.9161 40.0793 26.7283C40.0144 26.5413 40.0886 26.3342 40.257 26.2306C40.7109 25.9535 41.0982 25.5855 41.4006 25.1552C40.865 25.3817 40.3092 25.5527 39.7374 25.6664C39.5934 25.6967 39.4452 25.6478 39.345 25.5384C38.6309 24.7611 37.6229 24.3156 36.5795 24.3156C34.4902 24.3156 32.79 26.0571 32.79 28.1986C32.79 28.5017 32.8229 28.8015 32.8877 29.087C32.9172 29.215 32.8843 29.3506 32.7993 29.4516C32.7142 29.5527 32.5888 29.6108 32.4549 29.6007C29.1782 29.4323 26.0953 27.9325 23.8957 25.4567C23.7307 25.8979 23.6448 26.3704 23.6448 26.847C23.6448 28.1497 24.2763 29.359 25.3349 30.0832C25.4898 30.1893 25.5555 30.3838 25.4974 30.5615C25.4393 30.7392 25.2658 30.8445 25.0831 30.8521C24.5989 30.8352 24.118 30.7409 23.6633 30.5742C23.9235 32.159 25.0999 33.4373 26.6511 33.7548C26.8414 33.7944 26.9803 33.9586 26.9871 34.1531C26.9938 34.3476 26.8667 34.5219 26.6789 34.5733C26.2368 34.6963 25.7837 34.7527 25.3214 34.7375C25.9563 35.9746 27.2069 36.783 28.6073 36.8099C28.7841 36.8133 28.9408 36.9278 28.9972 37.0954C29.0536 37.263 29.0006 37.4491 28.8616 37.5603C27.4603 38.6836 25.8073 39.3371 24.0473 39.4702Z" fill="#472B29"/>
</g>
<defs>
<clipPath id="clip0_88_5564">
<rect width="64" height="64" fill="white"/>
</clipPath>
</defs>
</svg>
