<svg width="64" height="64" viewBox="0 0 64 64" fill="none" xmlns="http://www.w3.org/2000/svg">
<g clip-path="url(#clip0_88_5552)">
<path d="M46.9408 0C57.824 0 63.968 6.1728 64 17.056V46.944C64 57.824 57.824 64 46.9408 64H17.056C6.1728 64 0 57.824 0 46.944V17.056C0 6.1728 6.1728 0 17.056 0H46.9408ZM33.6 13.216C32.7008 12.672 31.6128 12.672 30.752 13.216C29.8848 13.7568 29.408 14.752 29.5008 15.744V48.352C29.664 49.728 30.8128 50.752 32.1568 50.752C33.536 50.752 34.6848 49.728 34.8128 48.352V15.744C34.9408 14.752 34.464 13.7568 33.6 13.216ZM18.656 23.712C17.792 23.168 16.7008 23.168 15.84 23.712C14.9728 24.256 14.496 25.2448 14.592 26.24V48.352C14.7168 49.728 15.8688 50.752 17.2448 50.752C18.624 50.752 19.7728 49.728 19.9008 48.352V26.24C20 25.2448 19.5168 24.256 18.656 23.712ZM48.2848 35.328C47.424 34.784 46.336 34.784 45.44 35.328C44.5728 35.872 44.096 36.8288 44.224 37.856V48.352C44.352 49.728 45.5008 50.752 46.88 50.752C48.224 50.752 49.3728 49.728 49.536 48.352V37.856C49.6288 36.8288 49.152 35.872 48.2848 35.328Z" fill="#181F24"/>
</g>
<defs>
<clipPath id="clip0_88_5552">
<rect width="64" height="64" fill="white"/>
</clipPath>
</defs>
</svg>
